<svg xmlns="http://www.w3.org/2000/svg" xml:space="preserve"
     style="fill-rule:evenodd;clip-rule:evenodd;stroke-linejoin:round;stroke-miterlimit:2" viewBox="0 0 1146 1138"><path d="M494.237 1132.95c-66.737-9.057-123.755-27.277-185.715-59.346-106.846-55.302-191.698-139.637-245.179-243.687C18.842 743.339.109 667.779 0 574.43c-.169-145.097 49.854-274.599 148.59-384.683C283.3 39.555 490.378-28.784 689.372 11.28c105.65 21.271 210.936 77.653 286.495 153.423 73.416 73.62 123.587 157.895 150.905 253.484 16.603 58.096 19.113 78.626 18.927 154.791-.157 64.397-.771 72.539-8.105 107.421-26.356 125.348-93.054 240.312-184.792 318.511-70.438 60.045-155.813 103.482-243.874 124.079-60.894 14.243-151.987 18.47-214.691 9.961Zm74.461-33.253c113.063-21.743 247.12-93.623 333.834-178.998 76.902-75.713 121.34-153.938 136.291-239.916 7.002-40.265 4.405-97.72-5.764-127.528-6.791-19.906-23.744-57.213-26-57.213-.452 0 .224 10.125 1.501 22.5 12.692 122.996-80.082 289.465-209.961 376.741-25.57 17.182-80.961 45.144-80.961 40.87 0-.573 11.431-9.289 25.403-19.368 46.714-33.701 89.163-79.128 111.318-119.126 17.361-31.344 19.464-38.65 6.592-22.904-33.118 40.513-85.088 82.208-163.189 130.924-64.45 40.202-89.575 59.134-122.9 92.608-29.937 30.07-50.915 59.514-62.214 87.32-3.822 9.406-6.948 17.781-6.948 18.611 0 3.507 33.906 1.073 62.998-4.521Zm-262.13-67.277c-15.087-42.747-10.292-94.558 12.168-131.492 5.786-9.515 12.235-25.327 14.331-35.138 4.092-19.151 11.62-35.787 25.103-55.47 4.648-6.786 7.585-12.339 6.525-12.339-1.06 0-10.872 5.947-21.806 13.216-49.181 32.695-78.64 87.253-74.383 137.754 2.013 23.882 16.582 64.085 29.723 82.017 5.558 7.585 10.688 13.791 11.4 13.791.712 0-.665-5.553-3.061-12.339Zm-60.914-51.475c-3.88-9.55-7.055-19.128-7.055-21.285 0-2.158-9.969-12.881-22.154-23.83C136.863 864.322 76.03 755.311 56.89 649.915l-3.954-21.775 1.097 31.936c1.823 53.039 13.707 98.048 39.511 149.641 26.66 53.305 58.173 94.617 108.764 142.586 26.564 25.187 48.932 45.783 49.878 45.925.288.044-2.652-7.734-6.532-17.283Zm134.109-26.167c18.576-79.246 73.381-145.998 184.002-224.11 80.509-56.85 114.408-84.97 137.478-114.041l9.137-11.514-19.511 14.944c-27.676 21.197-61.529 38.9-121.752 63.668-79.116 32.539-98.626 43.399-129.778 72.241-34.934 32.342-60.717 74.411-72.016 117.5-6.182 23.58-6.784 81.242-1.105 105.969l4 17.42 2.563-11.613c1.41-6.388 4.552-20.096 6.982-30.464Zm159.169-73.142c33.771-22.609 58.404-34.767 122.092-60.262 114.404-45.798 168.943-77.694 221.057-129.281 46.82-46.346 73.397-90.071 88.769-146.045 5.045-18.371 6.183-30.823 6.295-68.878.132-44.658-.212-47.461-8.915-72.581-4.979-14.371-8.831-26.37-8.561-26.663.27-.294 8.873 6.238 19.116 14.516 21.558 17.42 53.324 55.511 66.414 79.637 16.814 30.991 7.352-17.19-11.116-56.599-23.175-49.456-59.607-88.903-102.697-111.198l-23.584-12.202 24.677 1.508c25.295 1.546 50.406 8.628 76.937 21.698l14.516 7.151-15.968-16.494c-54.893-56.7-132.419-94.454-210.486-102.503l-23.227-2.395 24.102-7.826c13.256-4.305 27.627-7.866 31.936-7.915 12.791-.144 1.732-4.588-21.655-8.703-20.216-3.556-77.339-2.608-93.899 1.559-4.04 1.016-2.109-.733 4.355-3.946l11.613-5.771-9.118-.235c-16.09-.415-65.567 14.146-92.695 27.28-29.346 14.208-53.116 33.701-60.774 49.839-3.682 7.76-4.639 14.829-3.5 25.864 1.509 14.619 1.278 15.248-6.174 16.84-31.468 6.721-43.977 39.106-26.21 67.854l5.951 9.629 6.259-12.398c4.704-9.321 9.862-14.201 20.774-19.657 13.053-6.526 17.884-7.239 47.904-7.07 27.327.154 36.367 1.359 49.799 6.635 29.673 11.657 49.81 31.474 60.331 59.375 2.399 6.362-.382 4.408-12.764-8.966-9.514-10.277-23.118-20.923-34.098-26.683l-18.267-9.583 9.89 9.84c9.962 9.91 21.198 31.462 24.807 47.582 1.647 7.358.526 6.457-7.231-5.807-10.326-16.326-20.995-28.448-32.012-36.373l-7.45-5.358 7.45 15.052c11.296 22.827 10.579 49.476-2.02 75.068-19.37 39.348-56.46 64.509-142.952 96.976-44.011 16.521-63.936 26.277-94.356 46.2-90.921 59.544-145.938 143.981-165.558 254.086-.711 3.992 3.697-3.193 9.796-15.968 19.393-40.616 36.972-65.334 70.895-99.686 42.705-43.246 96.499-74.393 166.797-96.577a61856.6 61856.6 0 0 0 78.126-24.727c51.129-16.224 85.668-33.304 116.251-57.488 45.187-35.732 78.703-93.893 79.537-138.024l.194-10.278 4.305 13.065c6.463 19.616 12.511 54.548 12.625 72.927.239 38.518-16.223 98.393-36.153 131.489-12.285 20.401-6.559 17.739 19.132-8.896 46.379-48.081 75.187-115.827 75.117-176.649-.066-61.062-20.835-111.577-64.095-155.927-12.137-12.443-21.331-22.623-20.431-22.623.9 0 12.79 5.5 26.423 12.222 35.909 17.707 66.507 48.794 85.181 86.544 18.347 37.088 23.292 61.438 21.51 105.914-1.093 27.274-3.12 40.197-9.334 59.517-20.078 62.424-54.085 110.111-111.345 156.141-27.105 21.788-59.687 42.253-132.519 83.236-79.174 44.552-126.687 91.256-154.154 151.528-5.434 11.924-9.88 22.268-9.88 22.987 0 .718 8.165-6.668 18.145-16.414 9.98-9.747 29.834-25.546 44.12-35.11Zm64.79-590.464c-9.933-5.39-13.057-16.446-7.181-25.414 11.115-16.964 61.874-17.996 99.175-2.017l11.76 5.039-27.581-1.392-27.581-1.393-3.322 8.911c-3.788 10.158-19.314 20.839-30.065 20.683-3.992-.055-10.834-2.046-15.205-4.417ZM237.051 743.467l7.681-21.126-14.903-16.616c-44.142-49.216-79.155-120.398-94.572-192.264-5.537-25.812-7.553-95.774-3.513-121.937l2.018-13.065-4.524 10.162c-2.488 5.589-7.891 22.573-12.006 37.742-6.916 25.497-7.495 32.299-7.655 90.001-.181 65.036 1.29 76.557 15.825 124.018 16.912 55.221 48.79 112.1 84.036 149.943l13.149 14.118 3.391-19.925c1.865-10.958 6.848-29.431 11.073-41.051Zm60.822-101.805c5.509-7.437 19.903-23.288 31.986-35.224 17.944-17.726 21.968-23.347 21.968-30.683 0-14.749 8.081-36.723 18.899-51.385 22.756-30.844 61.506-45.748 118.943-45.748 39.72 0 57.196-4.681 74.367-19.919l12.626-11.204-8.729-4.514c-9.6-4.964-17.585-17.161-14.501-22.151 1.081-1.749 8.639-3.181 16.795-3.181 8.155 0 14.071-.758 13.145-1.683-.927-.927-12.576-4.075-25.888-6.998-29.721-6.525-66.97-19.938-82.37-29.661-6.331-3.998-19.351-13.96-28.931-22.138-22.33-19.059-39.471-28.298-62.45-33.659-19.732-4.603-23.128-4.081-23.318 3.584-.066 2.7-2.478 9.331-5.358 14.737l-5.236 9.827-1.639-21.663c-1.617-21.38-19.005-80.673-26.774-91.298-3.312-4.528-4.473-3.756-11.803 7.851-13.738 21.755-22.065 46.205-24.158 70.939l-1.966 23.226-6.179-15.968-6.178-15.968-2.065 10.863c-1.135 5.975-1.575 20.56-.976 32.412.598 11.851-.044 20.847-1.432 19.991-4.08-2.522-16.38-30.771-16.411-37.691-.044-9.934-4.159-10.19-16.786-1.042-10.649 7.714-26.791 25.793-26.791 30.006 0 .952 3.593-.143 7.984-2.434 4.391-2.291 11.071-4.173 14.844-4.183 5.73-.011 4.547 1.538-7.178 9.418-22.992 15.452-41.975 45.044-49.278 76.818-1.557 6.774-.444 5.961 6.783-4.962 9.957-15.048 21.091-25.861 35.555-34.533 13.586-8.144 16.873-7.733 6.755.845-23.173 19.647-37.463 60.749-34.928 100.463 1.54 24.132 12.257 62.684 20.596 74.089 3.257 4.453 3.99 2.629 5.518-13.731 2.297-24.606 10.004-44.319 26.196-67.01 29.378-41.169 79.041-66.542 138.446-70.733 25.99-1.834 56.39 2.791 116.13 17.668 37.571 9.356 28.21 12.219-25.805 7.894-55.385-4.435-76.154-4.198-98.736 1.125-55.932 13.184-103.429 59.821-116.683 114.57-7.576 31.296-3.573 76.517 9.482 107.119l5.445 12.763 10.033-16.661c5.518-9.163 14.541-22.746 20.05-30.183h.001Zm112.019-244.097c-3.992-2.964-9.871-5.928-13.065-6.587-5.025-1.037-4.556-1.862 3.485-6.132 13.814-7.337 25.451-6.368 32.595 2.715 3.31 4.207 6.018 9.433 6.018 11.613 0 5.951-20.371 4.822-29.033-1.609Zm-225.755-89.222c.903-16.387 3.606-33.59 6.287-40.005 8.51-20.368 2.873-13.768-7.871 9.215-11.993 25.653-19.333 53.789-19.396 74.343l-.044 14.082 9.719-14.442c8.963-13.319 9.843-16.68 11.304-43.193h.001Zm314.343 43.632c-10.795-25.835-.673-63.248 21.279-78.658 9.577-6.723 11.855-10.274 13.522-21.081 7.535-48.858 66.587-91.146 152.107-108.927 26.824-5.577 90.126-9.261 92.762-5.399 1.049 1.537 16.279 4.922 33.844 7.52 33.116 4.9 76.788 17.991 101.177 30.328 7.744 3.917 14.679 6.521 15.413 5.788 2.127-2.127-47.606-42.148-73.041-58.777-33.757-22.069-76.818-42.787-116.346-55.976-63.734-21.266-112.001-28.032-183.757-25.759-72.591 2.3-126.808 14.853-184.742 42.774-84.741 40.841-140.648 113.565-145.776 189.626l-1.727 25.621 14.077-8.928c7.743-4.91 15.519-8.927 17.28-8.927 1.762 0 4.798-4.41 6.747-9.8 8.615-23.825 47.785-72.66 66.173-82.501 5.827-3.118 6.422-2.076 12.558 22.014 3.542 13.907 6.959 26.94 7.593 28.961.653 2.08 10.95-6.582 23.727-19.959l22.574-23.634 3.858 15.604c2.122 8.583 4.021 30.826 4.221 49.429l.362 33.824 14.917 6.183c8.205 3.401 23.743 13.656 34.53 22.79 30.164 25.541 46.412 38.294 48.846 38.339 1.219.022.239-4.691-2.178-10.475Z" style="fill:#a37e2c;fill-rule:nonzero"/></svg>