<?xml version="1.0" encoding="UTF-8" standalone="no"?>
<!DOCTYPE svg PUBLIC "-//W3C//DTD SVG 1.1//EN" "http://www.w3.org/Graphics/SVG/1.1/DTD/svg11.dtd">
<svg width="100%" height="100%" viewBox="0 0 1126 1118"
     version="1.1" xmlns="http://www.w3.org/2000/svg" xml:space="preserve"
     style="fill-rule:evenodd;clip-rule:evenodd;stroke-linejoin:round;stroke-miterlimit:2;">
    <path id="path1"
          d="M485.648,1113.26c-65.577,-8.899 -121.604,-26.802 -182.487,-58.314c-104.99,-54.341 -188.367,-137.21 -240.919,-239.452c-43.727,-85.073 -62.135,-159.321 -62.242,-251.048c-0.166,-142.575 48.988,-269.827 146.008,-377.997c132.369,-147.582 335.848,-214.734 531.384,-175.366c103.814,20.901 207.271,76.304 281.517,150.757c72.14,72.341 121.438,155.151 148.281,249.078c16.315,57.087 18.782,77.26 18.599,152.102c-0.154,63.278 -0.758,71.279 -7.964,105.554c-25.898,123.17 -91.438,236.136 -181.581,312.976c-69.214,59.001 -153.105,101.683 -239.636,121.923c-59.836,13.995 -149.345,18.148 -210.96,9.787Zm73.167,-32.675c111.098,-21.365 242.825,-91.995 328.033,-175.887c75.565,-74.397 119.231,-151.263 133.922,-235.747c6.88,-39.565 4.329,-96.021 -5.663,-125.311c-6.673,-19.561 -23.332,-56.22 -25.548,-56.22c-0.445,0 0.219,9.95 1.474,22.11c12.472,120.859 -78.69,284.435 -206.313,370.193c-25.125,16.884 -79.553,44.36 -79.553,40.16c-0,-0.562 11.233,-9.127 24.962,-19.031c45.901,-33.115 87.613,-77.752 109.383,-117.056c17.059,-30.799 19.126,-37.978 6.477,-22.506c-32.542,39.809 -83.609,80.78 -160.352,128.649c-63.331,39.503 -88.019,58.106 -120.765,90.998c-29.417,29.549 -50.03,58.48 -61.132,85.804c-3.756,9.242 -6.829,17.471 -6.829,18.287c0,3.446 33.318,1.054 61.904,-4.443Zm-257.574,-66.108c-14.825,-42.003 -10.114,-92.914 11.956,-129.207c5.686,-9.349 12.023,-24.887 14.082,-34.527c4.021,-18.818 11.418,-35.164 24.667,-54.506c4.567,-6.668 7.453,-12.124 6.412,-12.124c-1.042,-0 -10.684,5.844 -21.428,12.986c-48.326,32.127 -77.273,85.736 -73.09,135.36c1.978,23.467 16.294,62.971 29.206,80.592c5.461,7.453 10.502,13.551 11.202,13.551c0.7,-0 -0.654,-5.456 -3.007,-12.125Zm-59.856,-50.58c-3.813,-9.384 -6.932,-18.795 -6.932,-20.915c-0,-2.121 -9.796,-12.658 -21.77,-23.416c-78.199,-70.265 -137.974,-177.382 -156.782,-280.947l-3.885,-21.396l1.078,31.381c1.791,52.117 13.469,96.345 38.824,147.04c26.197,52.379 57.163,92.973 106.875,140.109c26.102,24.749 48.081,44.987 49.011,45.127c0.282,0.043 -2.606,-7.6 -6.419,-16.983Zm131.778,-25.712c18.253,-77.869 72.106,-143.461 180.805,-220.216c79.109,-55.861 112.42,-83.493 135.089,-112.059l8.978,-11.313l-19.172,14.684c-27.195,20.828 -60.46,38.224 -119.636,62.562c-77.741,31.973 -96.912,42.644 -127.523,70.984c-34.326,31.781 -59.662,73.119 -70.764,115.459c-6.075,23.17 -6.667,79.83 -1.087,104.128l3.931,17.116l2.519,-11.411c1.385,-6.276 4.472,-19.747 6.86,-29.934Zm156.404,-71.871c33.184,-22.216 57.389,-34.163 119.97,-59.215c112.415,-45.002 166.006,-76.344 217.215,-127.034c46.007,-45.541 72.122,-88.506 87.226,-143.508c4.958,-18.051 6.076,-30.287 6.186,-67.68c0.13,-43.882 -0.209,-46.636 -8.76,-71.32c-4.892,-14.122 -8.678,-25.912 -8.412,-26.2c0.265,-0.289 8.718,6.13 18.784,14.264c21.183,17.118 52.397,54.546 65.259,78.253c16.522,30.453 7.225,-16.891 -10.922,-55.615c-22.773,-48.597 -58.571,-87.358 -100.912,-109.265l-23.175,-11.991l24.249,1.482c24.855,1.519 49.529,8.478 75.599,21.321l14.264,7.027l-15.69,-16.207c-53.94,-55.716 -130.118,-92.813 -206.829,-100.723l-22.823,-2.353l23.683,-7.69c13.026,-4.23 27.148,-7.729 31.381,-7.777c12.569,-0.142 1.702,-4.509 -21.278,-8.552c-19.865,-3.494 -75.996,-2.563 -92.268,1.532c-3.97,0.998 -2.072,-0.721 4.279,-3.877l11.411,-5.671l-8.959,-0.231c-15.811,-0.408 -64.427,13.9 -91.084,26.806c-28.836,13.961 -52.193,33.115 -59.718,48.973c-3.618,7.625 -4.558,14.571 -3.439,25.415c1.483,14.364 1.256,14.983 -6.067,16.547c-30.921,6.604 -43.213,38.426 -25.755,66.674l5.848,9.462l6.15,-12.183c4.623,-9.159 9.691,-13.954 20.414,-19.315c12.826,-6.413 17.573,-7.113 47.072,-6.947c26.851,0.151 35.734,1.335 48.932,6.52c29.158,11.454 48.945,30.927 59.284,58.343c2.357,6.251 -0.376,4.332 -12.542,-8.81c-9.35,-10.099 -22.718,-20.559 -33.506,-26.219l-17.95,-9.417l9.718,9.669c9.789,9.738 20.829,30.915 24.376,46.755c1.619,7.23 0.517,6.345 -7.105,-5.706c-10.147,-16.043 -20.63,-27.954 -31.456,-35.741l-7.32,-5.265l7.32,14.791c11.1,22.429 10.396,48.616 -1.985,73.763c-19.034,38.664 -55.479,63.388 -140.468,95.291c-43.245,16.234 -62.824,25.82 -92.716,45.397c-89.341,58.51 -143.402,141.479 -162.681,249.671c-0.699,3.922 3.633,-3.138 9.626,-15.691c19.056,-39.91 36.33,-64.199 69.663,-97.953c41.963,-42.495 94.822,-73.101 163.898,-94.9c20.053,-6.328 54.598,-17.261 76.769,-24.296c50.24,-15.943 84.179,-32.726 114.23,-56.489c44.402,-35.111 77.336,-92.262 78.155,-135.626l0.191,-10.099l4.23,12.838c6.351,19.274 12.294,53.6 12.406,71.659c0.235,37.849 -15.942,96.683 -35.525,129.204c-12.071,20.047 -6.445,17.431 18.8,-8.741c45.573,-47.246 73.88,-113.815 73.811,-173.579c-0.065,-60.001 -20.473,-109.639 -62.981,-153.217c-11.926,-12.227 -20.961,-22.231 -20.076,-22.231c0.884,0 12.568,5.404 25.964,12.01c35.285,17.399 65.351,47.946 83.701,85.04c18.027,36.444 22.887,60.37 21.136,104.073c-1.074,26.801 -3.066,39.499 -9.172,58.483c-19.729,61.339 -53.145,108.198 -109.41,153.428c-26.634,21.409 -58.65,41.519 -130.216,81.789c-77.798,43.778 -124.486,89.67 -151.475,148.895c-5.34,11.717 -9.709,21.881 -9.709,22.587c0,0.706 8.024,-6.552 17.83,-16.129c9.807,-9.577 29.316,-25.101 43.354,-34.499Zm63.663,-580.203c-9.76,-5.296 -12.83,-16.16 -7.056,-24.972c10.922,-16.67 60.799,-17.684 97.451,-1.982l11.557,4.951l-27.102,-1.368l-27.102,-1.368l-3.264,8.755c-3.723,9.982 -18.979,20.478 -29.543,20.325c-3.923,-0.054 -10.646,-2.011 -14.941,-4.341Zm-360.299,444.435l7.548,-20.759l-14.644,-16.327c-43.375,-48.361 -77.78,-118.306 -92.929,-188.923c-5.441,-25.363 -7.421,-94.109 -3.451,-119.818l1.982,-12.837l-4.445,9.984c-2.445,5.492 -7.754,22.181 -11.797,37.087c-6.796,25.053 -7.365,31.737 -7.522,88.437c-0.178,63.906 1.267,75.226 15.55,121.862c16.618,54.262 47.942,110.152 82.575,147.337l12.921,13.873l3.332,-19.578c1.833,-10.768 6.729,-28.92 10.88,-40.338Zm59.765,-100.036c5.414,-7.308 19.558,-22.883 31.43,-34.611c17.633,-17.419 21.587,-22.942 21.587,-30.15c-0,-14.494 7.941,-36.085 18.571,-50.493c22.36,-30.308 60.436,-44.952 116.876,-44.952c39.029,-0 56.201,-4.6 73.074,-19.573l12.406,-11.01l-8.576,-4.435c-9.434,-4.878 -17.28,-16.863 -14.249,-21.767c1.062,-1.718 8.488,-3.125 16.502,-3.125c8.014,0 13.827,-0.745 12.917,-1.654c-0.91,-0.91 -12.357,-4.004 -25.438,-6.876c-29.205,-6.411 -65.806,-19.592 -80.938,-29.146c-6.222,-3.928 -19.015,-13.717 -28.429,-21.753c-21.942,-18.728 -38.785,-27.806 -61.365,-33.074c-19.388,-4.523 -22.726,-4.01 -22.913,3.522c-0.064,2.653 -2.435,9.169 -5.264,14.48l-5.146,9.657l-1.609,-21.287c-1.589,-21.008 -18.676,-79.271 -26.31,-89.711c-3.253,-4.45 -4.394,-3.691 -11.597,7.715c-13.5,21.377 -21.682,45.402 -23.739,69.706l-1.931,22.822l-6.072,-15.691l-6.071,-15.69l-2.028,10.674c-1.116,5.871 -1.548,20.203 -0.96,31.849c0.588,11.645 -0.043,20.485 -1.407,19.644c-4.009,-2.478 -16.095,-30.237 -16.125,-37.036c-0.043,-9.762 -4.087,-10.013 -16.495,-1.025c-10.464,7.581 -26.325,25.345 -26.325,29.485c-0,0.936 3.53,-0.14 7.845,-2.391c4.315,-2.251 10.879,-4.101 14.586,-4.111c5.63,-0.01 4.468,1.511 -7.054,9.255c-22.592,15.183 -41.245,44.261 -48.421,75.483c-1.53,6.656 -0.437,5.857 6.665,-4.876c9.785,-14.787 20.724,-25.412 34.937,-33.933c13.35,-8.003 16.58,-7.599 6.638,0.831c-22.77,19.305 -36.812,59.692 -34.322,98.716c1.514,23.713 12.045,61.595 20.239,72.801c3.2,4.377 3.921,2.584 5.422,-13.492c2.257,-24.178 9.83,-43.548 25.741,-65.845c28.867,-40.453 77.668,-65.386 136.04,-69.504c25.539,-1.801 55.41,2.743 114.112,17.361c36.917,9.194 27.72,12.007 -25.357,7.757c-54.423,-4.358 -74.83,-4.125 -97.02,1.105c-54.96,12.955 -101.631,58.782 -114.655,112.579c-7.444,30.752 -3.511,75.187 9.317,105.258l5.35,12.541l9.859,-16.371c5.422,-9.004 14.288,-22.351 19.702,-29.658l0,-0.001Zm110.073,-239.855c-3.923,-2.912 -9.7,-5.825 -12.838,-6.472c-4.938,-1.019 -4.477,-1.83 3.424,-6.026c13.575,-7.209 25.009,-6.257 32.029,2.668c3.252,4.134 5.913,9.269 5.913,11.411c-0,5.847 -20.017,4.738 -28.528,-1.581Zm-221.832,-87.671c0.887,-16.102 3.544,-33.007 6.178,-39.311c8.362,-20.013 2.823,-13.528 -7.735,9.056c-11.784,25.207 -18.997,52.854 -19.058,73.051l-0.043,13.837l9.55,-14.191c8.807,-13.088 9.671,-16.39 11.107,-42.442l0.001,-0Zm308.881,42.874c-10.608,-25.387 -0.662,-62.149 20.909,-77.292c9.411,-6.606 11.649,-10.095 13.286,-20.715c7.405,-48.008 65.43,-89.561 149.464,-107.034c26.358,-5.48 88.56,-9.1 91.151,-5.304c1.03,1.51 15.996,4.835 33.255,7.389c32.541,4.815 75.454,17.678 99.419,29.8c7.609,3.849 14.424,6.409 15.145,5.688c2.09,-2.09 -46.779,-41.416 -71.772,-57.755c-33.17,-21.686 -75.483,-42.044 -114.324,-55.004c-62.626,-20.896 -110.055,-27.545 -180.563,-25.311c-71.33,2.26 -124.605,14.595 -181.532,42.031c-83.269,40.131 -138.204,111.591 -143.242,186.33l-1.698,25.176l13.833,-8.772c7.608,-4.825 15.249,-8.773 16.98,-8.773c1.731,0 4.714,-4.333 6.629,-9.629c8.466,-23.411 46.955,-71.397 65.023,-81.067c5.726,-3.065 6.311,-2.04 12.339,21.63c3.481,13.666 6.839,26.473 7.462,28.458c0.641,2.044 10.759,-6.468 23.315,-19.612l22.181,-23.223l3.791,15.333c2.086,8.433 3.952,30.29 4.148,48.57l0.355,33.236l14.659,6.076c8.062,3.341 23.33,13.418 33.929,22.393c29.64,25.097 45.606,37.629 47.997,37.674c1.198,0.021 0.235,-4.61 -2.139,-10.293l-0,-0Z"
          style="fill:#fff;fill-rule:nonzero;"/>
</svg>