<svg xmlns="http://www.w3.org/2000/svg" xml:space="preserve"
     style="fill-rule:evenodd;clip-rule:evenodd;stroke-linejoin:round;stroke-miterlimit:2" viewBox="0 0 1146 1138"><ellipse cx="572.854" cy="568.66" rx="562.899" ry="558.778"/>
    <clipPath id="a"><ellipse cx="572.854" cy="568.66" rx="562.899" ry="558.778"/></clipPath>
    <g clip-path="url(#a)"><path d="M-56.024-55.614h1257.76v1248.55H-56.024z" style="fill:url(#b)"/></g>
    <path d="M494.237 1132.95c-66.737-9.057-123.755-27.277-185.715-59.346-106.846-55.302-191.698-139.637-245.179-243.687C18.842 743.339.109 667.779 0 574.43c-.169-145.097 49.854-274.599 148.59-384.683C283.3 39.555 490.378-28.784 689.372 11.28c105.65 21.271 210.936 77.653 286.495 153.423 73.416 73.62 123.587 157.895 150.905 253.484 16.603 58.096 19.113 78.626 18.927 154.791-.157 64.397-.771 72.539-8.105 107.421-26.356 125.348-93.054 240.312-184.792 318.511-70.438 60.045-155.813 103.482-243.874 124.079-60.894 14.243-151.987 18.47-214.691 9.961Zm74.461-33.253c113.063-21.743 247.12-93.623 333.834-178.998 76.902-75.713 121.34-153.938 136.291-239.916 7.002-40.265 4.405-97.72-5.764-127.528-6.791-19.906-23.744-57.213-26-57.213-.452 0 .224 10.125 1.501 22.5 12.692 122.996-80.082 289.465-209.961 376.741-25.57 17.182-80.961 45.144-80.961 40.87 0-.573 11.431-9.289 25.403-19.368 46.714-33.701 89.163-79.128 111.318-119.126 17.361-31.344 19.464-38.65 6.592-22.904-33.118 40.513-85.088 82.208-163.189 130.924-64.45 40.202-89.575 59.134-122.9 92.608-29.937 30.07-50.915 59.514-62.214 87.32-3.822 9.406-6.948 17.781-6.948 18.611 0 3.507 33.906 1.073 62.998-4.521Zm-262.13-67.277c-15.087-42.747-10.292-94.558 12.168-131.492 5.786-9.515 12.235-25.327 14.331-35.138 4.092-19.151 11.62-35.787 25.103-55.47 4.648-6.786 7.585-12.339 6.525-12.339-1.06 0-10.872 5.947-21.806 13.216-49.181 32.695-78.64 87.253-74.383 137.754 2.013 23.882 16.582 64.085 29.723 82.017 5.558 7.585 10.688 13.791 11.4 13.791.712 0-.665-5.553-3.061-12.339Zm-60.914-51.475c-3.88-9.55-7.055-19.128-7.055-21.285 0-2.158-9.969-12.881-22.154-23.83C136.863 864.322 76.03 755.311 56.89 649.915l-3.954-21.775 1.097 31.936c1.823 53.039 13.707 98.048 39.511 149.641 26.66 53.305 58.173 94.617 108.764 142.586 26.564 25.187 48.932 45.783 49.878 45.925.288.044-2.652-7.734-6.532-17.283Zm134.109-26.167c18.576-79.246 73.381-145.998 184.002-224.11 80.509-56.85 114.408-84.97 137.478-114.041l9.137-11.514-19.511 14.944c-27.676 21.197-61.529 38.9-121.752 63.668-79.116 32.539-98.626 43.399-129.778 72.241-34.934 32.342-60.717 74.411-72.016 117.5-6.182 23.58-6.784 81.242-1.105 105.969l4 17.42 2.563-11.613c1.41-6.388 4.552-20.096 6.982-30.464Zm159.169-73.142c33.771-22.609 58.404-34.767 122.092-60.262 114.404-45.798 168.943-77.694 221.057-129.281 46.82-46.346 73.397-90.071 88.769-146.045 5.045-18.371 6.183-30.823 6.295-68.878.132-44.658-.212-47.461-8.915-72.581-4.979-14.371-8.831-26.37-8.561-26.663.27-.294 8.873 6.238 19.116 14.516 21.558 17.42 53.324 55.511 66.414 79.637 16.814 30.991 7.352-17.19-11.116-56.599-23.175-49.456-59.607-88.903-102.697-111.198l-23.584-12.202 24.677 1.508c25.295 1.546 50.406 8.628 76.937 21.698l14.516 7.151-15.968-16.494c-54.893-56.7-132.419-94.454-210.486-102.503l-23.227-2.395 24.102-7.826c13.256-4.305 27.627-7.866 31.936-7.915 12.791-.144 1.732-4.588-21.655-8.703-20.216-3.556-77.339-2.608-93.899 1.559-4.04 1.016-2.109-.733 4.355-3.946l11.613-5.771-9.118-.235c-16.09-.415-65.567 14.146-92.695 27.28-29.346 14.208-53.116 33.701-60.774 49.839-3.682 7.76-4.639 14.829-3.5 25.864 1.509 14.619 1.278 15.248-6.174 16.84-31.468 6.721-43.977 39.106-26.21 67.854l5.951 9.629 6.259-12.398c4.704-9.321 9.862-14.201 20.774-19.657 13.053-6.526 17.884-7.239 47.904-7.07 27.327.154 36.367 1.359 49.799 6.635 29.673 11.657 49.81 31.474 60.331 59.375 2.399 6.362-.382 4.408-12.764-8.966-9.514-10.277-23.118-20.923-34.098-26.683l-18.267-9.583 9.89 9.84c9.962 9.91 21.198 31.462 24.807 47.582 1.647 7.358.526 6.457-7.231-5.807-10.326-16.326-20.995-28.448-32.012-36.373l-7.45-5.358 7.45 15.052c11.296 22.827 10.579 49.476-2.02 75.068-19.37 39.348-56.46 64.509-142.952 96.976-44.011 16.521-63.936 26.277-94.356 46.2-90.921 59.544-145.938 143.981-165.558 254.086-.711 3.992 3.697-3.193 9.796-15.968 19.393-40.616 36.972-65.334 70.895-99.686 42.705-43.246 96.499-74.393 166.797-96.577a61856.6 61856.6 0 0 0 78.126-24.727c51.129-16.224 85.668-33.304 116.251-57.488 45.187-35.732 78.703-93.893 79.537-138.024l.194-10.278 4.305 13.065c6.463 19.616 12.511 54.548 12.625 72.927.239 38.518-16.223 98.393-36.153 131.489-12.285 20.401-6.559 17.739 19.132-8.896 46.379-48.081 75.187-115.827 75.117-176.649-.066-61.062-20.835-111.577-64.095-155.927-12.137-12.443-21.331-22.623-20.431-22.623.9 0 12.79 5.5 26.423 12.222 35.909 17.707 66.507 48.794 85.181 86.544 18.347 37.088 23.292 61.438 21.51 105.914-1.093 27.274-3.12 40.197-9.334 59.517-20.078 62.424-54.085 110.111-111.345 156.141-27.105 21.788-59.687 42.253-132.519 83.236-79.174 44.552-126.687 91.256-154.154 151.528-5.434 11.924-9.88 22.268-9.88 22.987 0 .718 8.165-6.668 18.145-16.414 9.98-9.747 29.834-25.546 44.12-35.11Zm64.79-590.464c-9.933-5.39-13.057-16.446-7.181-25.414 11.115-16.964 61.874-17.996 99.175-2.017l11.76 5.039-27.581-1.392-27.581-1.393-3.322 8.911c-3.788 10.158-19.314 20.839-30.065 20.683-3.992-.055-10.834-2.046-15.205-4.417ZM237.051 743.467l7.681-21.126-14.903-16.616c-44.142-49.216-79.155-120.398-94.572-192.264-5.537-25.812-7.553-95.774-3.513-121.937l2.018-13.065-4.524 10.162c-2.488 5.589-7.891 22.573-12.006 37.742-6.916 25.497-7.495 32.299-7.655 90.001-.181 65.036 1.29 76.557 15.825 124.018 16.912 55.221 48.79 112.1 84.036 149.943l13.149 14.118 3.391-19.925c1.865-10.958 6.848-29.431 11.073-41.051Zm60.822-101.805c5.509-7.437 19.903-23.288 31.986-35.224 17.944-17.726 21.968-23.347 21.968-30.683 0-14.749 8.081-36.723 18.899-51.385 22.756-30.844 61.506-45.748 118.943-45.748 39.72 0 57.196-4.681 74.367-19.919l12.626-11.204-8.729-4.514c-9.6-4.964-17.585-17.161-14.501-22.151 1.081-1.749 8.639-3.181 16.795-3.181 8.155 0 14.071-.758 13.145-1.683-.927-.927-12.576-4.075-25.888-6.998-29.721-6.525-66.97-19.938-82.37-29.661-6.331-3.998-19.351-13.96-28.931-22.138-22.33-19.059-39.471-28.298-62.45-33.659-19.732-4.603-23.128-4.081-23.318 3.584-.066 2.7-2.478 9.331-5.358 14.737l-5.236 9.827-1.639-21.663c-1.617-21.38-19.005-80.673-26.774-91.298-3.312-4.528-4.473-3.756-11.803 7.851-13.738 21.755-22.065 46.205-24.158 70.939l-1.966 23.226-6.179-15.968-6.178-15.968-2.065 10.863c-1.135 5.975-1.575 20.56-.976 32.412.598 11.851-.044 20.847-1.432 19.991-4.08-2.522-16.38-30.771-16.411-37.691-.044-9.934-4.159-10.19-16.786-1.042-10.649 7.714-26.791 25.793-26.791 30.006 0 .952 3.593-.143 7.984-2.434 4.391-2.291 11.071-4.173 14.844-4.183 5.73-.011 4.547 1.538-7.178 9.418-22.992 15.452-41.975 45.044-49.278 76.818-1.557 6.774-.444 5.961 6.783-4.962 9.957-15.048 21.091-25.861 35.555-34.533 13.586-8.144 16.873-7.733 6.755.845-23.173 19.647-37.463 60.749-34.928 100.463 1.54 24.132 12.257 62.684 20.596 74.089 3.257 4.453 3.99 2.629 5.518-13.731 2.297-24.606 10.004-44.319 26.196-67.01 29.378-41.169 79.041-66.542 138.446-70.733 25.99-1.834 56.39 2.791 116.13 17.668 37.571 9.356 28.21 12.219-25.805 7.894-55.385-4.435-76.154-4.198-98.736 1.125-55.932 13.184-103.429 59.821-116.683 114.57-7.576 31.296-3.573 76.517 9.482 107.119l5.445 12.763 10.033-16.661c5.518-9.163 14.541-22.746 20.05-30.183h.001Zm112.019-244.097c-3.992-2.964-9.871-5.928-13.065-6.587-5.025-1.037-4.556-1.862 3.485-6.132 13.814-7.337 25.451-6.368 32.595 2.715 3.31 4.207 6.018 9.433 6.018 11.613 0 5.951-20.371 4.822-29.033-1.609Zm-225.755-89.222c.903-16.387 3.606-33.59 6.287-40.005 8.51-20.368 2.873-13.768-7.871 9.215-11.993 25.653-19.333 53.789-19.396 74.343l-.044 14.082 9.719-14.442c8.963-13.319 9.843-16.68 11.304-43.193h.001Zm314.343 43.632c-10.795-25.835-.673-63.248 21.279-78.658 9.577-6.723 11.855-10.274 13.522-21.081 7.535-48.858 66.587-91.146 152.107-108.927 26.824-5.577 90.126-9.261 92.762-5.399 1.049 1.537 16.279 4.922 33.844 7.52 33.116 4.9 76.788 17.991 101.177 30.328 7.744 3.917 14.679 6.521 15.413 5.788 2.127-2.127-47.606-42.148-73.041-58.777-33.757-22.069-76.818-42.787-116.346-55.976-63.734-21.266-112.001-28.032-183.757-25.759-72.591 2.3-126.808 14.853-184.742 42.774-84.741 40.841-140.648 113.565-145.776 189.626l-1.727 25.621 14.077-8.928c7.743-4.91 15.519-8.927 17.28-8.927 1.762 0 4.798-4.41 6.747-9.8 8.615-23.825 47.785-72.66 66.173-82.501 5.827-3.118 6.422-2.076 12.558 22.014 3.542 13.907 6.959 26.94 7.593 28.961.653 2.08 10.95-6.582 23.727-19.959l22.574-23.634 3.858 15.604c2.122 8.583 4.021 30.826 4.221 49.429l.362 33.824 14.917 6.183c8.205 3.401 23.743 13.656 34.53 22.79 30.164 25.541 46.412 38.294 48.846 38.339 1.219.022.239-4.691-2.178-10.475Z"
          style="fill:#a37e2c;fill-rule:nonzero"/>
    <path d="M495.603 1123.14c-65.577-8.899-121.604-26.802-182.487-58.314-104.99-54.341-188.367-137.21-240.919-239.452C28.47 740.301 10.062 666.053 9.956 574.326 9.789 431.751 58.943 304.5 155.963 196.329 288.332 48.747 491.811-18.405 687.347 20.963 791.161 41.864 894.618 97.267 968.864 171.72c72.14 72.341 121.438 155.151 148.282 249.078 16.314 57.088 18.781 77.26 18.598 152.102-.154 63.278-.758 71.279-7.964 105.554-25.898 123.17-91.437 236.136-181.58 312.976-69.215 59.001-153.106 101.683-239.637 121.923-59.836 13.996-149.345 18.148-210.96 9.787Zm73.167-32.675c111.098-21.365 242.825-91.995 328.033-175.887 75.565-74.397 119.231-151.263 133.922-235.747 6.88-39.565 4.329-96.021-5.663-125.311-6.673-19.56-23.332-56.219-25.548-56.219-.445 0 .22 9.949 1.474 22.109 12.472 120.859-78.69 284.435-206.312 370.194-25.126 16.883-79.554 44.359-79.554 40.16 0-.563 11.233-9.127 24.962-19.032 45.901-33.115 87.613-77.752 109.383-117.055 17.059-30.8 19.126-37.979 6.477-22.507-32.542 39.809-83.609 80.78-160.352 128.649-63.331 39.504-88.019 58.107-120.765 90.998-29.417 29.549-50.03 58.481-61.132 85.804-3.756 9.242-6.828 17.471-6.828 18.287 0 3.446 33.317 1.054 61.903-4.443Zm-257.574-66.108c-14.825-42.003-10.114-92.914 11.956-129.206 5.686-9.35 12.023-24.888 14.082-34.528 4.021-18.818 11.418-35.164 24.667-54.506 4.567-6.668 7.453-12.124 6.412-12.124-1.042 0-10.684 5.844-21.427 12.986-48.327 32.127-77.274 85.736-73.091 135.36 1.978 23.467 16.294 62.972 29.206 80.592 5.461 7.453 10.502 13.551 11.202 13.551.7 0-.653-5.456-3.007-12.125Zm-59.856-50.58c-3.813-9.383-6.932-18.795-6.932-20.915 0-2.12-9.796-12.657-21.77-23.416C144.44 859.181 84.664 752.065 65.857 648.5l-3.886-21.397 1.079 31.381c1.79 52.117 13.468 96.345 38.823 147.041 26.197 52.378 57.163 92.973 106.875 140.108 26.102 24.75 48.081 44.987 49.011 45.127.282.043-2.606-7.6-6.419-16.983Zm131.779-25.712c18.253-77.869 72.105-143.461 180.804-220.215 79.11-55.862 112.42-83.494 135.089-112.06l8.978-11.313-19.172 14.684c-27.195 20.828-60.46 38.224-119.636 62.562-77.741 31.973-96.912 42.645-127.522 70.985-34.327 31.78-59.663 73.118-70.765 115.458-6.075 23.17-6.666 79.83-1.087 104.128l3.931 17.117 2.519-11.412c1.385-6.276 4.472-19.746 6.861-29.934Zm156.403-71.871c33.184-22.216 57.389-34.163 119.97-59.215 112.415-45.002 166.007-76.344 217.215-127.034 46.007-45.541 72.122-88.506 87.226-143.507 4.958-18.052 6.076-30.288 6.187-67.681.129-43.882-.21-46.636-8.761-71.32-4.892-14.121-8.678-25.911-8.412-26.2.265-.289 8.718 6.13 18.784 14.264 21.183 17.118 52.397 54.546 65.259 78.253 16.523 30.453 7.225-16.891-10.922-55.615-22.773-48.596-58.571-87.358-100.912-109.265l-23.175-11.991 24.249 1.482c24.855 1.519 49.529 8.478 75.599 21.321l14.264 7.027-15.69-16.207c-53.94-55.715-130.118-92.813-206.829-100.723l-22.822-2.353 23.683-7.69c13.025-4.23 27.147-7.729 31.381-7.777 12.568-.142 1.701-4.509-21.279-8.552-19.865-3.494-75.996-2.563-92.268 1.532-3.97.999-2.072-.72 4.279-3.877l11.411-5.671-8.959-.231c-15.81-.408-64.427 13.9-91.084 26.806-28.836 13.961-52.193 33.115-59.718 48.973-3.618 7.625-4.558 14.571-3.438 25.415 1.482 14.364 1.255 14.983-6.068 16.547-30.92 6.604-43.213 38.426-25.754 66.674l5.847 9.463 6.15-12.184c4.623-9.158 9.691-13.953 20.414-19.315 12.826-6.413 17.573-7.113 47.072-6.947 26.851.151 35.734 1.335 48.933 6.52 29.157 11.454 48.944 30.927 59.283 58.343 2.357 6.251-.376 4.332-12.542-8.81-9.35-10.099-22.717-20.559-33.506-26.219l-17.95-9.417 9.719 9.669c9.788 9.738 20.829 30.915 24.375 46.755 1.619 7.231.517 6.345-7.105-5.706-10.147-16.042-20.63-27.953-31.456-35.741l-7.32-5.265 7.32 14.791c11.1 22.43 10.396 48.616-1.984 73.764-19.034 38.663-55.48 63.387-140.469 95.29-43.245 16.234-62.824 25.82-92.716 45.397-89.341 58.51-143.402 141.479-162.681 249.671-.698 3.923 3.633-3.138 9.626-15.691 19.056-39.91 36.33-64.199 69.663-97.953 41.963-42.495 94.822-73.101 163.898-94.9a61228.55 61228.55 0 0 0 76.769-24.296c50.241-15.942 84.179-32.725 114.23-56.489 44.403-35.111 77.336-92.262 78.155-135.626l.191-10.099 4.23 12.838c6.351 19.274 12.294 53.6 12.406 71.66.235 37.848-15.941 96.682-35.524 129.203-12.072 20.047-6.446 17.431 18.799-8.741 45.573-47.246 73.88-113.815 73.811-173.579-.065-60.001-20.473-109.638-62.981-153.217-11.926-12.227-20.96-22.231-20.076-22.231.884 0 12.568 5.405 25.964 12.01 35.285 17.399 65.351 47.947 83.701 85.04 18.028 36.444 22.887 60.371 21.136 104.073-1.074 26.801-3.066 39.499-9.172 58.483-19.729 61.339-53.145 108.198-109.41 153.428-26.634 21.409-58.65 41.519-130.216 81.789-77.798 43.778-124.486 89.67-151.475 148.895-5.34 11.717-9.709 21.881-9.709 22.587 0 .706 8.024-6.551 17.831-16.128 9.806-9.577 29.315-25.102 43.353-34.5Zm63.663-580.203c-9.76-5.296-12.83-16.16-7.056-24.972 10.922-16.67 60.799-17.684 97.452-1.982l11.556 4.951-27.102-1.368-27.101-1.368-3.265 8.756c-3.723 9.981-18.979 20.477-29.543 20.324-3.922-.054-10.646-2.01-14.941-4.341ZM242.886 740.427l7.548-20.76-14.644-16.327c-43.375-48.361-77.78-118.306-92.929-188.923-5.441-25.363-7.421-94.109-3.451-119.818l1.982-12.837-4.445 9.985c-2.445 5.491-7.753 22.18-11.797 37.086-6.796 25.053-7.365 31.738-7.522 88.437-.178 63.906 1.267 75.227 15.55 121.863 16.618 54.261 47.942 110.152 82.575 147.337l12.921 13.872 3.332-19.578c1.833-10.768 6.729-28.92 10.88-40.337Zm59.765-100.037c5.414-7.307 19.558-22.883 31.43-34.611 17.633-17.419 21.587-22.941 21.587-30.15 0-14.493 7.941-36.085 18.571-50.493 22.36-30.308 60.436-44.952 116.876-44.952 39.029 0 56.202-4.6 73.074-19.573l12.406-11.009-8.576-4.436c-9.434-4.878-17.28-16.863-14.249-21.767 1.062-1.718 8.488-3.124 16.502-3.124s13.827-.745 12.917-1.655c-.91-.91-12.357-4.004-25.438-6.876-29.205-6.411-65.806-19.591-80.938-29.146-6.222-3.928-19.015-13.717-28.429-21.752-21.942-18.729-38.785-27.807-61.364-33.075-19.389-4.523-22.727-4.01-22.914 3.522-.064 2.653-2.434 9.169-5.264 14.48l-5.145 9.657-1.61-21.287c-1.589-21.008-18.676-79.271-26.309-89.711-3.254-4.449-4.395-3.691-11.598 7.715-13.5 21.377-21.682 45.402-23.739 69.706l-1.931 22.822-6.071-15.69-6.072-15.691-2.028 10.674c-1.116 5.871-1.548 20.203-.96 31.849.588 11.646-.043 20.485-1.407 19.644-4.009-2.478-16.095-30.237-16.125-37.036-.043-9.762-4.087-10.013-16.495-1.025-10.464 7.581-26.325 25.345-26.325 29.485 0 .936 3.53-.14 7.845-2.391 4.315-2.251 10.879-4.101 14.586-4.11 5.631-.011 4.468 1.51-7.054 9.254-22.592 15.184-41.245 44.261-48.421 75.483-1.53 6.656-.437 5.857 6.665-4.876 9.785-14.787 20.724-25.412 34.937-33.932 13.35-8.003 16.58-7.6 6.638.83-22.77 19.306-36.812 59.692-34.321 98.717 1.513 23.713 12.044 61.594 20.238 72.801 3.2 4.376 3.921 2.583 5.422-13.493 2.258-24.178 9.83-43.548 25.741-65.845 28.867-40.453 77.668-65.386 136.04-69.504 25.539-1.801 55.41 2.743 114.112 17.362 36.917 9.193 27.72 12.006-25.356 7.756-54.423-4.358-74.831-4.125-97.021 1.105-54.96 12.956-101.631 58.782-114.655 112.579-7.444 30.752-3.511 75.188 9.317 105.258l5.35 12.542 9.859-16.372c5.422-9.004 14.288-22.351 19.702-29.658v-.001Zm110.073-239.855c-3.923-2.912-9.7-5.825-12.838-6.472-4.938-1.019-4.477-1.83 3.425-6.026 13.574-7.209 25.008-6.257 32.028 2.668 3.252 4.134 5.913 9.269 5.913 11.411 0 5.848-20.016 4.738-28.528-1.581Zm-221.832-87.671c.887-16.102 3.544-33.007 6.178-39.31 8.362-20.014 2.823-13.529-7.735 9.055-11.784 25.207-18.996 52.854-19.058 73.051l-.043 13.837 9.55-14.191c8.807-13.087 9.671-16.39 11.107-42.442h.001Zm308.881 42.874c-10.608-25.387-.662-62.149 20.909-77.292 9.411-6.606 11.649-10.095 13.286-20.715 7.405-48.008 65.43-89.561 149.464-107.033 26.358-5.481 88.56-9.101 91.151-5.305 1.031 1.51 15.996 4.836 33.255 7.389 32.541 4.815 75.454 17.678 99.419 29.801 7.609 3.848 14.424 6.408 15.145 5.687 2.09-2.09-46.779-41.416-71.772-57.755-33.17-21.686-75.483-42.043-114.324-55.003C673.68 54.615 626.251 47.966 555.743 50.2c-71.33 2.26-124.605 14.595-181.532 42.031-83.268 40.131-138.204 111.591-143.242 186.33l-1.697 25.176 13.832-8.772c7.608-4.825 15.249-8.772 16.98-8.772 1.731 0 4.714-4.334 6.629-9.63 8.466-23.411 46.955-71.397 65.023-81.067 5.726-3.065 6.311-2.04 12.34 21.631 3.48 13.666 6.838 26.472 7.461 28.458.642 2.043 10.76-6.468 23.315-19.613l22.181-23.223 3.791 15.333c2.086 8.434 3.952 30.29 4.148 48.57l.355 33.236 14.659 6.076c8.062 3.342 23.33 13.419 33.929 22.393 29.64 25.098 45.606 37.63 47.997 37.674 1.198.022.235-4.61-2.139-10.293Z"
          style="fill:#fff;fill-rule:nonzero"/>
    <defs><linearGradient id="b" x1="0" x2="1" y1="0" y2="0" gradientTransform="rotate(90 281.486 291.368) scale(1117.56)" gradientUnits="userSpaceOnUse"><stop offset="0" style="stop-color:#316039;stop-opacity:1"/><stop
            offset="1" style="stop-color:#406033;stop-opacity:1"/></linearGradient></defs></svg>