<?xml version="1.0" encoding="UTF-8" standalone="no"?><!DOCTYPE svg PUBLIC "-//W3C//DTD SVG 1.1//EN" "http://www.w3.org/Graphics/SVG/1.1/DTD/svg11.dtd"><svg width="100%" height="100%" viewBox="0 0 3334 3334" version="1.1" xmlns="http://www.w3.org/2000/svg" xmlns:xlink="http://www.w3.org/1999/xlink" xml:space="preserve" xmlns:serif="http://www.serif.com/" style="fill-rule:evenodd;clip-rule:evenodd;stroke-linecap:round;stroke-linejoin:round;stroke-miterlimit:1.5;"><path d="M250.202,141.243l-36.32,536.723l48.426,407.587c0,-0 108.959,213.882 137.208,238.095c28.248,24.213 217.917,173.527 217.917,173.527l112.995,177.563l8.071,407.586l108.959,290.557l44.39,213.883l-40.355,298.627l-201.775,112.995l16.142,201.775l564.971,-8.071l173.527,-121.065l96.853,104.923c-0,0 302.663,56.498 371.267,64.569c68.604,8.071 645.682,28.248 645.682,28.248l306.699,-189.669l234.059,-480.226l36.32,-367.232l4.036,-351.089l-32.284,-1057.3l-197.741,-104.924l-117.029,112.995l-76.675,794.996l-819.209,-492.333l76.674,-496.368l-24.213,-548.83l-391.444,286.522l-399.516,-76.675l-423.729,88.781l-359.16,-326.876l-84.746,80.71" style="fill:#f59436;"/><clipPath id="_clip1"><path d="M250.202,141.243l-36.32,536.723l48.426,407.587c0,-0 108.959,213.882 137.208,238.095c28.248,24.213 217.917,173.527 217.917,173.527l112.995,177.563l8.071,407.586l108.959,290.557l44.39,213.883l-40.355,298.627l-201.775,112.995l16.142,201.775l564.971,-8.071l173.527,-121.065l96.853,104.923c-0,0 302.663,56.498 371.267,64.569c68.604,8.071 645.682,28.248 645.682,28.248l306.699,-189.669l234.059,-480.226l36.32,-367.232l4.036,-351.089l-32.284,-1057.3l-197.741,-104.924l-117.029,112.995l-76.675,794.996l-819.209,-492.333l76.674,-496.368l-24.213,-548.83l-391.444,286.522l-399.516,-76.675l-423.729,88.781l-359.16,-326.876l-84.746,80.71"/></clipPath><g clip-path="url(#_clip1)"><path d="M1203.95,1694.75c12.981,195.605 216.689,293.937 191.333,415.877c-17.668,84.963 2.35,156.506 46.679,211.797c23.036,28.945 62.658,38.777 96.553,23.959c33.895,-14.817 53.586,-50.578 47.985,-87.143c-9.486,-54.476 13.033,-87.151 126.298,-57.572c26.993,6.708 55.319,-4.004 71.12,-26.895c15.8,-22.891 15.77,-53.175 -0.075,-76.036c-24.779,-36.315 -54.853,-82.697 -92.799,-144.207c29.018,-130.501 -69.925,-300.564 -162.919,-372.275c-13.65,-9.916 -31.503,-11.937 -47.024,-5.323c-71.478,30.169 -277.151,117.818 -277.151,117.818" style="fill:#e6e6e6;"/></g><path d="M250.202,141.243l-36.32,536.723l48.426,407.587c0,-0 108.959,213.882 137.208,238.095c28.248,24.213 217.917,173.527 217.917,173.527l112.995,177.563l8.071,407.586l108.959,290.557l44.39,213.883l-40.355,298.627l-201.775,112.995l16.142,201.775l564.971,-8.071l173.527,-121.065l96.853,104.923c-0,0 302.663,56.498 371.267,64.569c68.604,8.071 645.682,28.248 645.682,28.248l306.699,-189.669l234.059,-480.226l36.32,-367.232l4.036,-351.089l-32.284,-1057.3l-197.741,-104.924l-117.029,112.995l-76.675,794.996l-819.209,-492.333l76.674,-496.368l-24.213,-548.83l-391.444,286.522l-399.516,-76.675l-423.729,88.781l-359.16,-326.876l-84.746,80.71" style="fill:none;stroke:#000;stroke-width:4.17px;"/><g><g><circle cx="605.475" cy="794.701" r="74.408"/></g><path d="M730.428,1916.87c-0,0 36.319,-52.461 125.101,-52.461c88.781,-0 44.39,32.284 125.101,-16.142c80.71,-48.426 242.13,-20.178 40.355,68.603c-201.776,88.782 -149.314,-4.035 -205.811,60.533c-56.498,64.568 -16.143,145.279 -64.569,60.533c-48.426,-84.746 -20.177,-121.066 -20.177,-121.066Z" style="fill:#bb5900;"/><path d="M804.017,325.824c0,0 31.376,32.278 19.097,93.263c-12.28,60.985 -28.54,25.983 -6.103,88.189c22.436,62.207 -19.49,169.143 -53.181,18.136c-33.691,-151.006 23.452,-102.002 -13.534,-149.831c-36.985,-47.83 -98.566,-31.385 -33.068,-52.81c65.497,-21.425 86.789,3.053 86.789,3.053Z" style="fill:#bb5900;"/><path d="M1388.33,322.182c0,0 -31.376,32.278 -19.096,93.263c12.28,60.985 28.539,25.982 6.103,88.189c-22.436,62.207 19.49,169.143 53.181,18.136c33.691,-151.006 -23.452,-102.002 13.533,-149.831c36.985,-47.83 98.566,-31.385 33.069,-52.81c-65.497,-21.425 -86.79,3.053 -86.79,3.053Z" style="fill:#bb5900;"/><path d="M902.273,329.789c0,-0 -21.14,23.192 -12.183,67.677c8.957,44.484 19.743,19.168 4.989,64.219c-14.753,45.05 14.889,123.242 36.508,13.689c21.62,-109.553 -16.972,-74.431 7.857,-108.886c24.828,-34.455 67.06,-21.919 22.106,-38.115c-44.954,-16.196 -59.277,1.416 -59.277,1.416Z" style="fill:#bb5900;"/><path d="M1297.87,337.86c-0,-0 21.14,23.192 12.183,67.677c-8.957,44.484 -19.743,19.168 -4.989,64.219c14.753,45.05 -14.889,123.242 -36.508,13.689c-21.62,-109.553 16.972,-74.431 -7.857,-108.886c-24.828,-34.455 -67.06,-21.919 -22.106,-38.115c44.955,-16.196 59.277,1.416 59.277,1.416Z" style="fill:#bb5900;"/><path d="M1184.87,309.611c0,0 21.141,23.193 12.184,67.677c-8.958,44.484 -19.743,19.169 -4.99,64.219c14.754,45.051 -14.888,123.242 -36.508,13.689c-21.619,-109.553 16.973,-74.43 -7.856,-108.885c-24.828,-34.456 -67.06,-21.919 -22.106,-38.115c44.954,-16.197 59.276,1.415 59.276,1.415Z" style="fill:#bb5900;"/><path d="M1007.2,277.327c-0,-0 -21.14,23.193 -12.183,67.677c8.957,44.484 19.742,19.169 4.989,64.219c-14.754,45.051 14.888,123.242 36.508,13.689c21.619,-109.553 -16.973,-74.43 7.856,-108.886c24.828,-34.455 67.06,-21.918 22.106,-38.115c-44.954,-16.196 -59.276,1.416 -59.276,1.416Z" style="fill:#bb5900;"/><path d="M2147.38,1276.19c-0,-0 -86.634,-7.152 -162.421,86.001c-75.786,93.153 -3.659,74.428 -123.907,117.335c-120.248,42.906 -228.087,236.645 38.299,101.527c266.386,-135.118 123.18,-160.147 239.876,-163.722c116.696,-3.575 167.833,108.397 119.306,-15.525c-48.526,-123.922 -111.153,-125.616 -111.153,-125.616Z" style="fill:#bb5900;"/><path d="M2385.9,1415.56c0,-0 -80.629,-14.532 -141.739,60.581c-61.109,75.112 3.68,65.408 -103.226,91.914c-106.905,26.506 -188.058,187.445 44.971,93.327c233.029,-94.117 98.495,-129.807 205.852,-121.901c107.356,7.905 165.164,111.677 108.632,-2.405c-56.532,-114.082 -114.49,-121.516 -114.49,-121.516Z" style="fill:#bb5900;"/><path d="M2583.51,1548.47c-0,0 -74.196,-22.44 -119.578,33.341c-45.382,55.781 11.543,55.743 -81.064,64.675c-92.608,8.932 -145.166,134.723 52.119,84.54c197.285,-50.182 72.045,-97.295 169.393,-77.088c97.347,20.207 162.304,115.192 97.194,11.654c-65.111,-103.537 -118.064,-117.122 -118.064,-117.122Z" style="fill:#bb5900;"/><path d="M733.546,2126.06c-0,0 32.25,-40.59 111.083,-40.59c78.834,0 39.417,24.979 111.084,-12.489c71.667,-37.468 215.001,-15.612 35.834,53.079c-179.168,68.691 -132.584,-3.122 -182.751,46.835c-50.167,49.957 -14.333,112.403 -57.334,46.835c-43,-65.569 -17.916,-93.67 -17.916,-93.67Z" style="fill:#bb5900;"/><path d="M801.398,2282.18c0,0 28.921,-49.069 99.616,-49.069c70.695,-0 35.347,30.196 99.615,-15.099c64.268,-45.295 192.804,-18.873 32.134,64.168c-160.67,83.042 -118.896,-3.774 -163.883,56.619c-44.988,60.394 -12.854,135.886 -51.415,56.619c-38.56,-79.266 -16.067,-113.238 -16.067,-113.238Z" style="fill:#bb5900;"/><path d="M456.013,367.232c117.03,125.101 75.138,292.417 -76.675,165.456c-134.802,-112.736 -26.602,-257.176 -40.355,-266.344l117.03,100.888Z" style="fill:#bb5900;"/><path d="M1681.64,351.09c-117.03,125.1 -75.138,292.417 76.674,165.456c134.803,-112.737 26.603,-257.176 40.356,-266.344l-117.03,100.888Z" style="fill:#bb5900;"/><path d="M2816.79,1324.56c117.03,-125.101 75.137,-292.418 -76.675,-165.456c-134.802,112.736 -26.602,257.175 -40.355,266.344l117.03,-100.888Z" style="fill:#bb5900;"/><path d="M2769.79,947.653c124.337,-26.496 161.816,-144.666 14.178,-131.554c-131.096,11.644 -116.683,143.693 -129.156,143.477l114.978,-11.923Z" style="fill:#bb5900;"/><path d="M2812.75,1655.47c117.03,-125.101 75.138,-292.418 -76.675,-165.456c-134.802,112.736 -26.602,257.175 -40.355,266.344l117.03,-100.888Z" style="fill:#bb5900;"/><path d="M2985.11,1389.13c-117.03,-125.101 -75.137,-292.418 76.675,-165.456c134.802,112.736 26.602,257.175 40.355,266.344l-117.03,-100.888Z" style="fill:#bb5900;"/><path d="M3029.5,1070.33c-117.03,-125.101 -75.138,-292.418 76.675,-165.456c134.802,112.736 26.602,257.175 40.355,266.343l-117.03,-100.887Z" style="fill:#bb5900;"/><path d="M2413.04,2236.89c-62.386,-68.603 -238.685,-101.856 -373.594,108.449c-151.174,235.66 -143.075,374.236 -11.049,411.097c132.026,36.86 372.794,-132.914 455.429,-232.359c82.635,-99.444 -70.786,-287.187 -70.786,-287.187Z" style="fill:#b2692c;fill-opacity:0.45;"/></g><g><g><path d="M1300.17,1086.94c-18.639,-32.943 -60.488,-44.433 -93.353,-25.716c-6.621,3.73 -17.421,7.682 -31.119,4.792c-15.521,-3.275 -28.301,-14.681 -33.171,-29.746l-0.078,0.078c-6.621,-20.085 -22.214,-36.823 -43.75,-43.9c-35.99,-11.719 -74.642,7.91 -86.354,43.822c-4.948,15.065 -17.65,26.477 -33.249,29.746c-13.62,2.89 -24.421,-1.068 -31.12,-4.792c-32.871,-18.717 -74.635,-7.227 -93.353,25.716c-18.639,32.871 -7.155,74.642 25.717,93.353c27.467,15.599 58.359,23.665 89.55,23.665c12.403,0 24.955,-1.295 37.357,-3.88c25.716,-5.404 49.531,-16.361 70.072,-31.497c20.618,15.143 44.511,26.093 70.299,31.497c12.324,2.585 24.883,3.88 37.357,3.88c31.12,0 62.012,-8.066 89.473,-23.665c32.877,-18.711 44.44,-60.482 25.722,-93.353Z" style="fill-rule:nonzero;"/></g></g><g><g><circle cx="1549.38" cy="794.701" r="74.408"/></g></g><g><g><g><path d="M2759.06,2245.66c-4.746,-1.244 -9.642,-2.038 -14.622,-2.338c-7.468,-0.449 -15.131,0.202 -22.78,2.084c-40.782,10.045 -65.736,51.282 -55.697,92.063c31.576,127.976 12.096,261.198 -54.779,375.02c-21.302,36.217 -9.205,82.858 27.084,104.082c12.096,7.155 25.338,10.501 38.424,10.501c26.094,0 51.511,-13.392 65.664,-37.506c8.164,-13.9 15.795,-28.028 22.871,-42.344c7.077,-14.316 13.607,-28.835 19.59,-43.516c3.985,-9.785 7.728,-19.648 11.224,-29.583c15.736,-44.687 26.485,-90.729 32.155,-137.428c0.632,-5.189 1.198,-10.384 1.699,-15.586c1.009,-10.41 1.765,-20.84 2.272,-31.296c1.01,-20.911 1.01,-41.901 -0.013,-62.916c-0.507,-10.508 -1.276,-21.016 -2.298,-31.524c-1.53,-15.762 -3.639,-31.517 -6.328,-47.233c-1.79,-10.482 -3.841,-20.944 -6.152,-31.387c-1.153,-5.221 -2.377,-10.436 -3.659,-15.644c-2.135,-8.672 -5.749,-16.569 -10.404,-23.627c-2.187,-3.313 -4.544,-6.484 -7.187,-9.381c-1.654,-1.816 -3.392,-3.542 -5.202,-5.182c-2.897,-2.618 -6.029,-4.935 -9.277,-7.077c-6.908,-4.57 -14.512,-8.067 -22.585,-10.182Z" style="fill-rule:nonzero;"/><path d="M3190.34,2434.7c0.078,-1.446 0.227,-2.969 0.227,-4.493l0,-1480.68c0,-77.226 -30.052,-149.811 -84.602,-204.212c-54.629,-54.479 -127.064,-84.531 -204.135,-84.531c-159.244,-0 -288.743,129.498 -288.743,288.743l-0,575.729l-659.271,-416.406c38.04,-107.129 58.281,-219.655 58.281,-331.803l0,-619.024c0,-87.116 -70.911,-158.027 -158.027,-158.027c-40.098,-0 -78.366,15.065 -107.656,42.376c-0.684,0.612 -1.296,1.218 -1.979,1.901l-269.564,269.571c-121.127,-67.943 -257.24,-103.627 -397.468,-103.627c-140.221,0 -276.412,35.684 -397.467,103.627l-269.57,-269.564c-0.684,-0.684 -1.296,-1.296 -1.98,-1.901c-29.29,-27.318 -67.558,-42.383 -107.656,-42.383c-87.116,-0 -158.027,70.911 -158.027,158.027l-0,619.024c-0,248.261 98.984,498.808 271.471,687.422c68.399,74.791 144.863,136.725 226.96,184.882c-4.03,49.304 -5.404,99.369 -4.03,149.428c6.009,224.296 66.419,444.863 174.616,639.947l-0,432.084l-2.891,-0c-127.519,-0 -231.295,103.704 -231.295,231.217l-0,85.137c-0,80.573 65.585,146.159 146.08,146.159l393.815,-0c99.141,-0 183.744,-63.607 215.17,-152.168l79.583,-0l-0,1.673c-0,82.93 67.487,150.495 150.417,150.495l870.104,-0c224.752,-0 438.249,-108.418 570.937,-289.883c0.078,0 0.078,-0.078 0.078,-0.078c14.226,-19.323 27.696,-39.87 40.098,-61.172c0.228,-0.306 0.378,-0.605 0.612,-0.911c0.456,-0.834 0.99,-1.674 1.524,-2.585c102.46,-170.801 148.873,-358.809 144.388,-543.997Zm-2663.95,-1072.94c-15.748,-17.272 -30.735,-35.15 -45.039,-53.561l55.007,-4.642c41.849,-3.575 72.962,-40.404 69.388,-82.246c-3.503,-41.921 -40.326,-72.963 -82.246,-69.388l-134.135,11.334c-13.769,-27.083 -26.022,-54.857 -36.901,-83.086l167.54,22.214c3.346,0.456 6.692,0.605 10.045,0.605c37.585,0 70.3,-27.773 75.326,-66.041c5.553,-41.693 -23.737,-79.968 -65.43,-85.443l-232.135,-30.814c-8.445,-47.552 -12.937,-95.638 -12.937,-143.646l0,-619.017c0,-3.196 2.663,-5.859 5.86,-5.859c0.534,-0 1.979,-0 3.502,1.139l310.502,310.58c25.716,25.638 65.892,29.596 96.093,9.433c108.646,-72.584 235.404,-110.931 366.576,-110.931c131.094,0 257.923,38.347 366.575,110.931c30.209,20.163 70.378,16.205 96.094,-9.433l310.501,-310.58c1.524,-1.139 2.969,-1.139 3.503,-1.139c3.197,-0 5.859,2.663 5.859,5.859l0,619.024c0,48.008 -4.414,96.094 -12.936,143.646l-232.207,30.813c-41.621,5.476 -70.911,43.75 -65.43,85.443c5.098,38.268 37.741,66.042 75.326,66.042c3.346,-0 6.693,-0.228 10.117,-0.612l167.539,-22.214c-10.801,28.229 -23.131,55.996 -36.901,83.086l-134.212,-11.334c-41.921,-3.575 -78.672,27.467 -82.246,69.388c-3.503,41.849 27.545,78.671 69.388,82.246l55.085,4.642c-14.304,18.411 -29.291,36.289 -45.04,53.561c-150.872,164.876 -346.562,255.644 -551.002,255.644c-204.44,0 -400.15,-90.768 -551.029,-255.644Zm2389.43,1538.05l-36.061,55.234c-104.31,141.595 -271.315,226.12 -447.071,226.12l-868.359,-0l-0,-88.711c-0,-48.919 39.713,-88.718 88.639,-88.718l225.137,0c26.855,0 51.66,-14.153 65.43,-37.278c13.698,-23.054 14.225,-51.66 1.367,-75.248c-44.05,-80.8 -67.337,-172.558 -67.337,-265.227c-0,-306.166 249.023,-555.189 555.11,-555.189c41.999,-0 76.088,-34.089 76.088,-76.087c-0,-42.077 -34.089,-76.088 -76.088,-76.088c-390.006,0 -707.278,317.272 -707.278,707.357c-0,76.842 12.552,153.158 36.823,225.592l-109.258,0c-110.853,0 -204.362,75.326 -232.285,177.429l-75.02,-0l0,-486.406c0,-42.077 -34.088,-76.088 -76.087,-76.088c-42.077,0 -76.087,34.011 -76.087,76.088l-0,562.493c-0,41.921 -34.161,76.087 -76.088,76.087l-387.728,0l0,-79.127c0,-43.594 35.534,-79.05 79.128,-79.05l78.978,0c41.999,0 76.087,-34.088 76.087,-76.087l0,-507.48c4.108,-18.106 1.751,-37.741 -8.294,-55.085c-103.32,-178.418 -160.84,-382.324 -166.322,-589.655c-0.683,-25.26 -0.534,-50.521 0.306,-75.625c92.214,33.249 189.069,50.521 287.826,50.521c247.728,-0 483.209,-108.347 663.229,-305.098c59.577,-65.13 110.325,-137.558 151.256,-214.785l721.355,455.592c414.446,261.569 547.135,786.101 302.604,1194.52Zm122.571,-976.543c-69.01,-112.526 -160.612,-214.18 -273.144,-297.95l-0,-675.781c-0,-75.325 61.25,-136.569 136.569,-136.569c36.445,0 70.755,14.225 96.628,40.02c25.716,25.716 39.941,60.032 39.941,96.549l-0,973.731l0.006,-0Z" style="fill-rule:nonzero;"/></g></g></g><g><g><circle cx="605.475" cy="794.701" r="74.408"/></g></g><g><g><path d="M1300.17,1086.94c-18.639,-32.943 -60.488,-44.433 -93.353,-25.716c-6.621,3.73 -17.421,7.682 -31.119,4.792c-15.521,-3.275 -28.301,-14.688 -33.171,-29.746l-0.078,0.078c-6.621,-20.085 -22.214,-36.823 -43.75,-43.9c-35.99,-11.719 -74.642,7.91 -86.354,43.828c-4.948,15.065 -17.65,26.478 -33.249,29.746c-13.62,2.891 -24.421,-1.068 -31.12,-4.792c-32.871,-18.717 -74.635,-7.226 -93.353,25.717c-18.639,32.871 -7.155,74.642 25.717,93.352c27.467,15.599 58.359,23.666 89.55,23.666c12.403,-0 24.955,-1.296 37.357,-3.88c25.716,-5.404 49.531,-16.361 70.072,-31.498c20.618,15.143 44.511,26.094 70.299,31.498c12.324,2.584 24.883,3.88 37.357,3.88c31.12,-0 62.012,-8.067 89.473,-23.666c32.877,-18.717 44.44,-60.488 25.722,-93.359Z" style="fill-rule:nonzero;"/></g></g><g><g><circle cx="1549.38" cy="794.701" r="74.408"/></g></g><g id="SVGCleanerId_0"><g><path d="M2813.72,2301.09c-10.045,-40.782 -51.282,-65.736 -92.063,-55.697c-40.782,10.046 -65.736,51.283 -55.697,92.064c31.576,127.975 12.096,261.198 -54.779,375.019c-21.302,36.218 -9.205,82.859 27.084,104.083c12.096,7.154 25.338,10.501 38.424,10.501c26.094,-0 51.511,-13.392 65.664,-37.507c87.116,-148.287 112.455,-321.758 71.367,-488.463Z" style="fill-rule:nonzero;"/></g></g><g><g><circle cx="605.475" cy="794.701" r="74.408"/></g></g><g><g><circle cx="1549.38" cy="794.701" r="74.408"/></g></g><g><g><path d="M1300.17,1086.94c-18.639,-32.943 -60.488,-44.433 -93.353,-25.716c-6.621,3.73 -17.421,7.682 -31.119,4.792c-15.521,-3.275 -28.301,-14.688 -33.171,-29.746l-0.078,0.078c-6.621,-20.085 -22.214,-36.823 -43.75,-43.9c-35.99,-11.719 -74.642,7.91 -86.354,43.828c-4.948,15.065 -17.65,26.478 -33.249,29.746c-13.62,2.891 -24.421,-1.068 -31.12,-4.792c-32.871,-18.717 -74.635,-7.226 -93.353,25.717c-18.639,32.871 -7.155,74.642 25.717,93.352c27.467,15.599 58.359,23.666 89.55,23.666c12.403,-0 24.955,-1.296 37.357,-3.88c25.716,-5.404 49.531,-16.361 70.072,-31.498c20.618,15.143 44.511,26.094 70.299,31.498c12.324,2.584 24.883,3.88 37.357,3.88c31.12,-0 62.012,-8.067 89.473,-23.666c32.877,-18.717 44.44,-60.488 25.722,-93.359Z" style="fill-rule:nonzero;"/></g></g><g><g><path d="M2813.72,2301.09c-10.045,-40.782 -51.282,-65.736 -92.063,-55.697c-40.782,10.046 -65.736,51.283 -55.697,92.064c31.576,127.975 12.096,261.198 -54.779,375.019c-21.302,36.218 -9.205,82.859 27.084,104.083c12.096,7.154 25.338,10.501 38.424,10.501c26.094,-0 51.511,-13.392 65.664,-37.507c87.116,-148.287 112.455,-321.758 71.367,-488.463Z" style="fill-rule:nonzero;"/></g></g></svg>