<?xml version="1.0" encoding="UTF-8" standalone="no"?><!DOCTYPE svg PUBLIC "-//W3C//DTD SVG 1.1//EN" "http://www.w3.org/Graphics/SVG/1.1/DTD/svg11.dtd"><svg width="100%" height="100%" viewBox="0 0 3334 3334" version="1.1" xmlns="http://www.w3.org/2000/svg" xmlns:xlink="http://www.w3.org/1999/xlink" xml:space="preserve" xmlns:serif="http://www.serif.com/" style="fill-rule:evenodd;clip-rule:evenodd;stroke-linecap:round;stroke-linejoin:round;stroke-miterlimit:1.5;"><path d="M560.936,726.392l-20.177,205.811l-4.036,185.634l36.32,209.847l-80.71,121.065l88.781,181.598l318.805,8.071l278.451,-16.142l16.142,-165.456l-88.782,-100.888c0,0 4.036,-201.775 12.107,-250.202c8.071,-48.426 32.284,-266.343 32.284,-266.343l-44.391,-112.995l-399.515,20.178l-145.279,-20.178Z" style="fill:#fff;stroke:#000;stroke-width:4.17px;"/><path d="M3099.2,1755.45l-5.914,24.588l-1.183,22.177l10.645,25.071l-23.656,14.463l26.022,21.696l93.443,0.964l81.615,-1.929l4.731,-19.767l-26.022,-12.053c0,0 1.183,-24.105 3.549,-29.891c2.365,-5.785 9.462,-31.82 9.462,-31.82l-13.011,-13.499l-117.099,2.411l-42.582,-2.411Z" style="fill:#fff;stroke:#000;stroke-width:4.17px;"/><path d="M698.144,1727.2l217.917,484.262l36.32,641.646l464.084,28.249l72.639,-677.966l786.925,-8.071l129.136,133.172l-133.171,205.811l32.284,375.303l476.19,-20.178l44.391,-1456.82l-217.918,-387.409l-1404.36,32.284l-125.101,52.462l32.284,205.811l80.71,129.136l-56.497,133.172l-270.379,20.178l-165.456,108.958Z" style="fill:#fff;stroke:#000;stroke-width:4.17px;"/><path d="M1844.23,2280.07l52.462,-100.888l431.8,32.284l141.243,96.852l-121.066,88.781l-338.983,28.249l-165.456,-145.278Z" style="fill:#ffd0f5;stroke:#000;stroke-width:4.17px;"/><path d="M1109.77,819.209l37.569,-100.888l309.225,32.284l101.148,96.853l-86.699,88.781l-242.755,28.248l-118.488,-145.278Z" style="fill:#ffd0f5;stroke:#000;stroke-width:4.17px;"/><path d="M448.073,1462.05l62.954,-122.388l518.16,39.164l169.491,117.493l-145.278,107.702l-406.78,34.269l-198.547,-176.24Z" style="fill:#ffd0f5;stroke:#000;stroke-width:4.17px;"/><path d="M68.604,811.138l37.569,-100.888l309.224,32.284l101.149,96.853l-86.699,88.781l-242.755,28.248l-118.488,-145.278Z" style="fill:#ffd0f5;stroke:#000;stroke-width:4.17px;"/><g><g><path d="M2588.7,1419.09c-2.285,-5.163 -26.211,-46.146 -56.731,-71.7c-9.349,-7.845 -33.464,-21.113 -33.464,-21.113c-26.471,-13.203 -55.163,-19.935 -85.228,-19.935l-313.725,0c-36.08,0 -65.358,29.284 -65.358,65.358c0,36.081 29.284,65.359 65.358,65.359l313.725,-0c24.115,-0 41.244,13.398 50.521,26.145c7.65,10.456 11.569,26.732 11.569,36.016c-0,36.081 29.277,65.358 65.358,65.358c36.081,0 65.358,-29.277 65.358,-65.358c0,-28.04 -5.885,-55.098 -17.383,-80.13Z" style="fill-rule:nonzero;"/></g></g><g id="SVGCleanerId_0"><g><path d="M2588.7,1419.09c-2.285,-5.163 -26.211,-46.146 -56.731,-71.7c-9.349,-7.845 -33.464,-21.113 -33.464,-21.113c-26.471,-13.203 -55.163,-19.935 -85.228,-19.935l-313.725,0c-36.08,0 -65.358,29.284 -65.358,65.358c0,36.081 29.284,65.359 65.358,65.359l313.725,-0c24.115,-0 41.244,13.398 50.521,26.145c7.65,10.456 11.569,26.732 11.569,36.016c-0,36.081 29.277,65.358 65.358,65.358c36.081,0 65.358,-29.277 65.358,-65.358c0,-28.04 -5.892,-55.098 -17.383,-80.13Z" style="fill-rule:nonzero;"/></g></g><g><g><path d="M3330.52,1887.45l-95.228,-314.838l-0,-53.203c-0,-286.863 -233.399,-520.255 -520.19,-520.255l-1196.47,-0c53.008,-29.349 98.236,-72.748 129.479,-126.798c11.699,-20.26 11.699,-45.227 -0.065,-65.488c-60.456,-104.447 -172.871,-169.278 -293.399,-169.278c-74.577,0 -145.488,24.115 -203.529,67.846c-3.333,-3.073 -6.732,-6.016 -10.26,-8.822c71.699,-63.138 116.992,-155.554 116.992,-258.301c0,-36.146 -29.277,-65.359 -65.358,-65.359c-36.081,0 -65.358,29.213 -65.358,65.359c-0,117.715 -95.814,213.529 -213.529,213.529l-170.391,-0c-117.709,-0 -213.529,-95.814 -213.529,-213.529c-0,-36.146 -29.213,-65.359 -65.359,-65.359c-36.08,0 -65.358,29.213 -65.358,65.359c0,102.812 45.293,195.228 116.993,258.301c-3.529,2.812 -6.928,5.684 -10.261,8.756c-58.04,-43.658 -128.952,-67.78 -203.464,-67.78c-120.586,0 -233.073,64.903 -293.464,169.278c-11.699,20.261 -11.699,45.163 0,65.423c60.391,104.512 172.806,169.408 293.464,169.408c54.903,0 108.301,-13.333 156.01,-38.105l42.877,310.977c-51.439,31.96 -85.749,88.952 -85.749,153.789l0,56.472c0,99.739 81.114,180.846 180.847,180.846l33.659,0l0,49.48c0,158.756 74.31,306.074 200.326,400.326l61.048,744.897c2.748,33.92 31.114,60 65.098,60l462.351,0c34.05,0 62.351,-26.08 65.163,-60l52.813,-645.092l202.025,-0c6.146,11.569 12.812,22.812 19.805,33.724l-0,175.163c-0,36.146 29.277,65.358 65.358,65.358c36.146,0 65.358,-29.212 65.358,-65.358l-0,-41.048c30.326,20.586 63.008,37.65 97.513,50.651l0,106.927c0,36.081 29.212,65.358 65.358,65.358c36.081,0 65.359,-29.284 65.359,-65.358l-0,-78.034c11.699,0.847 79.544,-0.325 101.243,-3.398l-5.683,394.831c-0.196,17.513 6.536,34.382 18.821,46.797c12.285,12.481 29.082,19.479 46.537,19.479l474.766,0c32.09,0 59.415,-23.268 64.512,-54.967l94.773,-587.645c0.586,-3.463 0.846,-6.927 0.846,-10.39l-0,-808.166c-0,-72.546 -15.228,-142.611 -45.293,-208.171c-6.472,-14.186 -38.627,-69.479 -47.383,-81.764c-20.195,-28.236 -43.203,-54.18 -68.561,-77.579c197.513,18.627 352.546,185.359 352.546,387.71l-0,53.203l-95.228,314.838c-6.016,19.804 -2.285,41.243 10.065,57.845c12.35,16.601 31.764,26.406 52.481,26.406l196.074,0c20.651,0 40.13,-9.805 52.481,-26.406c12.343,-16.608 16.067,-38.041 10.065,-57.845Zm-2890.7,-1028.62c-37.715,33.398 -86.602,52.155 -137.579,52.155c-60.521,-0 -117.715,-26.602 -156.862,-71.374c39.147,-44.707 96.341,-71.309 156.862,-71.309c52.481,0 102.09,19.479 140.196,54.31c-1.966,11.966 -2.878,24.063 -2.617,36.218Zm914.826,-90.521c60.455,-0 117.643,26.601 156.797,71.309c-39.147,44.772 -96.276,71.373 -156.797,71.373c-50.984,0 -99.87,-18.756 -137.644,-52.09c0.26,-12.22 -0.651,-24.381 -2.617,-36.276c38.105,-34.844 87.773,-54.316 140.261,-54.316Zm-766.271,39.212c14.049,-16.081 33.528,-24.967 54.902,-24.967l370.261,-0c21.374,-0 40.847,8.886 54.903,24.967c13.984,16.081 20.13,36.602 17.187,57.709l-12.22,88.821c-11.634,-14.511 -29.349,-23.854 -49.349,-23.854c-34.772,0 -63.008,28.171 -63.008,62.943c0,34.772 28.236,62.943 63.008,62.943c13.789,-0 26.536,-4.512 36.927,-12.025l0,0.065l-33.594,243.399l-397.976,0l-33.594,-243.464l0,-0.065c10.391,7.585 23.139,12.09 36.993,12.09c34.772,-0 62.943,-28.171 62.943,-62.943c-0,-34.772 -28.171,-62.943 -62.943,-62.943c-20,0 -37.78,9.349 -49.349,23.854l-12.279,-88.815c-2.943,-21.113 3.197,-41.634 17.188,-57.715Zm7.851,767.45c-27.65,-0 -50.13,-22.481 -50.13,-50.131l-0,-56.471c-0,-27.65 22.48,-50.131 50.13,-50.131l464.441,0c27.585,0 50.065,22.481 50.065,50.131l0,56.471c0,27.65 -22.48,50.131 -50.065,50.131l-464.441,-0Zm420.379,1254.7l-49.213,-601.564c34.05,11.7 69.343,19.74 105.358,23.855l47.318,577.709l-103.463,-0Zm1247.12,-475.033c-35.358,12.35 -72.682,18.626 -110.911,18.626c-100.847,-0 -193.79,-44.245 -256.928,-117.976l354.766,0c24.115,25.358 50.912,48.041 79.74,67.579c-20.983,12.949 -43.333,23.672 -66.667,31.771Zm184.897,475.033l-103.92,-0l5.293,-369.148c37.715,-17.513 73.073,-40 104.968,-66.862l-6.341,436.01Zm333.926,-1330.45l0,802.938l-85.098,527.514l-118.04,-0l7.122,-495.619c0.456,-31.635 -21.829,-59.018 -52.943,-65.098c-20.781,-3.985 -41.764,-10.196 -62.35,-18.366c-54.447,-21.699 -103.269,-57.123 -141.244,-102.546c-12.415,-14.902 -30.781,-23.464 -50.13,-23.464l-803.387,0c-34.05,0 -62.351,26.081 -65.163,60.001l-52.813,645.092l-107.187,-0l-52.878,-645.092c-2.813,-33.92 -31.114,-60.001 -65.163,-60.001l-0.391,0c-0.983,-0.065 -2.024,-0.065 -3.007,-0.065c-71.83,0 -141.44,-20.651 -201.309,-59.674c-105.163,-68.496 -167.976,-184.245 -167.976,-309.669l-0,-49.479l300.066,-0c99.674,-0 180.781,-81.114 180.781,-180.847l0,-56.471c0,-64.838 -34.316,-121.83 -85.749,-153.79l25.814,-187.578c6.016,1.894 1231.76,2.878 1231.76,2.878c70.391,-0 138.432,25.683 164.05,38.496c0.521,0.26 73.008,32.09 136.797,116.732c46.934,62.278 68.438,160.449 68.438,214.108Zm356.335,356.993l31.049,-102.611l31.048,102.611l-62.097,0Z" style="fill-rule:nonzero;"/></g></g><g><g><path d="M2588.7,1419.09c-2.285,-5.163 -26.211,-46.146 -56.731,-71.7c-9.349,-7.845 -33.464,-21.113 -33.464,-21.113c-26.471,-13.203 -55.163,-19.935 -85.228,-19.935l-313.725,0c-36.08,0 -65.358,29.284 -65.358,65.358c0,36.081 29.284,65.359 65.358,65.359l313.725,-0c24.115,-0 41.244,13.398 50.521,26.145c7.65,10.456 11.569,26.732 11.569,36.016c-0,36.081 29.277,65.358 65.358,65.358c36.081,0 65.358,-29.277 65.358,-65.358c0,-28.04 -5.892,-55.098 -17.383,-80.13Z" style="fill-rule:nonzero;"/></g></g><path d="M1345.45,1827.16c-11.381,-90.358 -127.356,-115.915 -224.101,36.119c-96.745,152.034 57.573,201.888 82.211,156.251c24.638,-45.638 34.028,-59.808 88.696,-78.871c54.667,-19.063 64.575,-23.14 53.194,-113.499Z" style="stroke:#000;stroke-width:4.17px;"/><path d="M1958.22,1822.61c-29.115,-66.767 -123.697,-111.106 -163.461,-24.932c-39.764,86.175 89.668,156.434 98.232,129.572c8.565,-26.862 12.556,-34.81 50.117,-36.012c37.56,-1.201 44.227,-1.862 15.112,-68.628Z" style="stroke:#000;stroke-width:4.17px;"/><path d="M2337.56,1536.09c-29.115,-66.766 -123.697,-111.106 -163.461,-24.931c-39.763,86.174 4.88,75.711 29.629,89.216c69.097,37.707 81.16,5.546 118.72,4.344c37.56,-1.202 44.227,-1.862 15.112,-68.629Z" style="stroke:#000;stroke-width:4.17px;"/><path d="M884.776,854.084c-18.482,-42.382 -36.037,-166.437 -75.569,-157.135c-128.21,30.169 -73.37,100.731 -87.892,132.203c-39.764,86.175 4.879,75.711 29.628,89.217c69.097,37.706 81.16,5.545 118.72,4.343c37.561,-1.201 44.228,-1.862 15.113,-68.628Z" style="stroke:#000;stroke-width:4.17px;"/><path d="M985.538,1344.65c41.998,-19.338 165.671,-39.41 155.567,-78.744c-32.767,-127.571 -102.2,-71.309 -133.961,-85.189c-86.964,-38.005 -75.596,6.416 -88.596,31.434c-36.295,69.849 -3.896,81.256 -1.932,118.784c1.965,37.528 2.76,44.181 68.922,13.715Z" style="stroke:#000;stroke-width:4.17px;"/><path d="M1728.82,1395.36c67.158,-246.121 -252.457,-265.229 -349.202,-113.195c-96.745,152.034 -105.531,230.38 -46.925,333.814c40.556,71.579 453.721,158.109 463.998,34.123c4.782,-57.698 -113.639,-87.012 -67.871,-254.742Z" style="stroke:#000;stroke-width:4.17px;"/><path d="M2514.57,1935.69c156.464,-100.326 -262.332,-326.576 -228.754,-135.249c58.532,333.518 -117.76,46.985 -163.996,121.129c-132.657,212.726 163.446,346.528 196.949,282.493c33.502,-64.034 46.402,-83.846 124.074,-108.793c77.672,-24.947 -38.35,-88.997 71.727,-159.58Z" style="stroke:#000;stroke-width:4.17px;"/></svg>