<?xml version="1.0" encoding="UTF-8" standalone="no"?><!DOCTYPE svg PUBLIC "-//W3C//DTD SVG 1.1//EN" "http://www.w3.org/Graphics/SVG/1.1/DTD/svg11.dtd"><svg width="100%" height="100%" viewBox="0 0 3334 3334" version="1.1" xmlns="http://www.w3.org/2000/svg" xmlns:xlink="http://www.w3.org/1999/xlink" xml:space="preserve" xmlns:serif="http://www.serif.com/" style="fill-rule:evenodd;clip-rule:evenodd;stroke-linecap:round;stroke-linejoin:round;stroke-miterlimit:1.5;"><path d="M500.404,1020.99c-0,-0 -56.498,60.532 -201.776,-48.426c-145.279,-108.959 -213.882,-383.374 -213.882,-383.374l274.415,-0l609.362,-326.877l56.497,104.924l-20.177,92.816l407.586,556.901l1549.64,290.557l242.131,-294.592l-32.284,326.876l-40.355,815.174l153.349,399.515l-60.533,556.901l-286.521,-8.071l-64.568,-108.959l-217.918,-20.177l-28.248,-129.137l133.172,-80.71l28.248,-213.882l-427.764,-532.688l-815.174,129.137l-20.177,803.067l-125.101,88.781l-112.995,-8.071l-129.136,92.817l-213.882,-48.426l-4.036,-141.243l133.172,-68.604l12.107,-710.25l-225.989,-145.279l-133.172,-221.953l-225.988,-766.747Z" style="fill:#975731;"/><clipPath id="_clip1"><path d="M500.404,1020.99c-0,-0 -56.498,60.532 -201.776,-48.426c-145.279,-108.959 -213.882,-383.374 -213.882,-383.374l274.415,-0l609.362,-326.877l56.497,104.924l-20.177,92.816l407.586,556.901l1549.64,290.557l242.131,-294.592l-32.284,326.876l-40.355,815.174l153.349,399.515l-60.533,556.901l-286.521,-8.071l-64.568,-108.959l-217.918,-20.177l-28.248,-129.137l133.172,-80.71l28.248,-213.882l-427.764,-532.688l-815.174,129.137l-20.177,803.067l-125.101,88.781l-112.995,-8.071l-129.136,92.817l-213.882,-48.426l-4.036,-141.243l133.172,-68.604l12.107,-710.25l-225.989,-145.279l-133.172,-221.953l-225.988,-766.747Z"/></clipPath><g clip-path="url(#_clip1)"><path d="M609.362,1347.86c0,0 171.05,-282.33 219.154,-361.73c7.714,-12.731 21.591,-20.429 36.476,-20.232c49.178,0.651 161.349,2.134 216.883,2.869c19.697,0.26 37.705,-11.085 45.973,-28.964c13.002,-28.116 32.849,-71.032 48.208,-104.245c14.021,-30.319 11.694,-65.682 -6.179,-93.902c-44.386,-70.083 -124.679,-196.863 -124.679,-196.863l8.071,-270.379l-189.669,80.71l-431.8,250.202l-363.196,-4.036l161.42,343.019l254.238,104.923l125.1,298.628Z" style="fill:#5c3318;fill-opacity:0.71;"/></g><path d="M500.404,1020.99c-0,-0 -56.498,60.532 -201.776,-48.426c-145.279,-108.959 -213.882,-383.374 -213.882,-383.374l274.415,-0l609.362,-326.877l56.497,104.924l-20.177,92.816l407.586,556.901l1549.64,290.557l242.131,-294.592l-32.284,326.876l-40.355,815.174l153.349,399.515l-60.533,556.901l-286.521,-8.071l-64.568,-108.959l-217.918,-20.177l-28.248,-129.137l133.172,-80.71l28.248,-213.882l-427.764,-532.688l-815.174,129.137l-20.177,803.067l-125.101,88.781l-112.995,-8.071l-129.136,92.817l-213.882,-48.426l-4.036,-141.243l133.172,-68.604l12.107,-710.25l-225.989,-145.279l-133.172,-221.953l-225.988,-766.747Z" style="fill:none;stroke:#000;stroke-width:4.17px;"/><g><g><path d="M577.741,643.496c-36.79,0 -66.699,29.909 -66.699,66.699c-0,36.862 29.909,66.7 66.699,66.7c36.862,-0 66.699,-29.838 66.699,-66.7c0,-36.79 -29.837,-66.699 -66.699,-66.699Z" style="fill-rule:nonzero;"/></g></g><g><g><path d="M577.741,643.496c-36.79,0 -66.699,29.909 -66.699,66.699c-0,36.862 29.909,66.7 66.699,66.7c36.862,-0 66.699,-29.838 66.699,-66.7c0,-36.79 -29.837,-66.699 -66.699,-66.699Z" style="fill-rule:nonzero;"/></g></g><g><g><path d="M1200.51,1785.15c-50.833,-18.158 -90.729,-60.755 -109.635,-117.129l-61.706,-197.669c-11.074,-35.645 -48.945,-55.424 -84.518,-44.356c-35.645,11.139 -55.495,48.945 -44.356,84.59l61.908,198.275c0.065,0.338 0.202,0.677 0.267,0.944c0.065,0.136 0.273,0.677 0.273,0.742c31.934,95.931 102.006,169.518 192.403,201.784c7.493,2.702 15.123,3.912 22.682,3.912c27.747,0 53.737,-17.213 63.594,-44.824c12.487,-35.097 -5.808,-73.717 -40.912,-86.269Z" style="fill-rule:nonzero;"/></g></g><g><g><path d="M3333.33,2522.48c0,-8.977 -1.823,-17.89 -5.332,-26.191l-133.196,-316.146c-0,0 -0.202,-619.466 -0.606,-626.758c-3.242,-52.317 5.404,-105.384 25.788,-157.767c103.424,-265.983 59.811,-720.865 57.923,-740.104c-3.581,-35.918 -34.902,-62.578 -70.82,-60.69c-36.048,1.96 -64.199,31.999 -63.932,68.047c0.742,85.195 -34.499,307.031 -172.754,536.764c-13.568,22.481 -40.235,33.959 -67.917,29.232c-4.05,-0.677 -1464.54,-235.202 -1464.54,-235.202l-386.83,-483.164c4.05,-6.146 7.897,-12.558 11.615,-19.31c44.824,-82.428 41.588,-182.61 -8.373,-261.464c-12.487,-19.714 -34.095,-31.459 -57.519,-31.394c-34.968,0.202 -68.861,7.559 -99.981,20.996c-5.605,-10.735 -11.881,-21.132 -19.036,-30.989c-12.22,-17.077 -32.337,-26.602 -53.333,-25.182c-91.003,6.074 -171.745,61.295 -210.56,144.062c-12.018,25.521 -19.375,51.647 -21.804,77.702l-207.994,168.587l-316.621,0c-37.26,0 -67.507,30.248 -67.507,67.507c0,254.576 196.452,464.192 445.697,485.188c-0,0 220.214,705.339 220.755,706.687c57.721,170.664 179.642,305.547 338.424,376.634l0,618.385c-81.751,8.776 -150.006,70.886 -162.767,151.354c-8.437,53.06 6.55,106.732 41.114,147.24c34.629,40.508 84.993,63.795 138.261,63.795l142.579,0c63.326,0 120.032,-28.287 158.444,-72.773l49.485,0c115.371,0 209.212,-93.906 209.212,-209.349l0,-134.075c0,-0 0.202,-371.303 0.274,-549.388l748.542,-98.021l388.177,486.133l0.201,142.174c-81.751,8.711 -150.006,70.82 -162.766,151.289c-8.438,53.06 6.549,106.732 41.113,147.24c34.635,40.573 84.993,63.795 138.19,63.795l100.924,0c2.364,3.106 4.727,6.211 7.292,9.18c34.564,40.573 84.994,63.795 138.19,63.795l142.65,0c115.443,0 209.349,-93.906 209.349,-209.348l-0.807,-0c0.462,-3.308 0.8,-438.471 0.8,-438.471Zm-1887.15,231.628l0,134.076c0,40.507 -32.539,73.515 -72.845,74.257c0,-0.475 0.065,-1.015 0.065,-1.484l0,-134.075c0,-0 0,-103.36 0.066,-229.395c0.065,-126.042 0.065,-274.759 0.136,-365.495l72.845,-9.583c-0.058,184.765 -0.267,531.699 -0.267,531.699Zm1355.86,205.156c-0.137,1.016 -0.274,2.025 -0.404,3.041l-66.699,-0c-13.639,-0 -26.602,-6.009 -35.443,-16.407c-5.267,-6.145 -13.568,-19.238 -10.534,-38.411c3.509,-22.005 24.642,-38.548 49.284,-38.548l48.809,-0.742c36.862,-0.606 66.36,-30.651 66.36,-67.507l-0.201,-231.217c-0,-15.189 -5.065,-29.909 -14.447,-41.791l-342.611,-429.564c45.977,10.534 88.034,36.25 117.937,74.128l350.709,458.457l0,177.214c-81.751,8.769 -150,70.879 -162.76,151.347Zm396.276,1.693c-0,40.977 -33.347,74.329 -74.33,74.329l-142.649,0c-13.64,0 -26.602,-6.009 -35.508,-16.406c-5.195,-6.146 -13.503,-19.238 -10.462,-38.411c3.509,-22.005 24.642,-38.548 49.283,-38.548l48.744,-0.743c36.862,-0.605 66.426,-30.651 66.426,-67.506l-0,-265.86c-0,-0.403 -0.065,-0.878 -0.137,-1.282c-0.267,-13.906 -4.727,-27.813 -13.77,-39.766l-364.889,-476.953c-0.137,-0.202 -0.338,-0.475 -0.54,-0.742c-74.668,-94.85 -195.371,-144.062 -315.13,-128.405l-1108.03,145.078c-34.023,4.453 -58.665,33.483 -58.665,66.901l-0.065,0c-0.065,120.703 -0.202,646.133 -0.202,654.095l-0,134.213c-0,40.976 -33.346,74.329 -74.33,74.329l-142.578,-0c-13.704,-0 -26.666,-6.009 -35.507,-16.406c-5.267,-6.146 -13.568,-19.239 -10.534,-38.412c3.509,-22.005 24.707,-38.548 49.284,-38.548l48.743,-0.742c36.862,-0.606 66.426,-30.651 66.426,-67.507l-0,-729.707c-0,-29.297 -18.77,-54.212 -44.824,-63.528l-0,-0.065c-142.377,-50.834 -252.279,-165.131 -301.7,-313.516c-0.201,-0.677 -0.475,-1.348 -0.677,-2.025l-232.369,-744.485c-8.777,-28.217 -34.903,-47.461 -64.473,-47.461l-8.913,-0c-170.931,-0 -313.848,-122.526 -345.378,-284.349l266.459,-0c15.527,-0 30.514,-5.332 42.532,-15.052l231.218,-187.409l81.081,-0c54.479,3.04 105.449,-29.838 124.96,-81.283c1.758,-4.792 2.969,-7.018 2.969,-7.018c14.512,-26.732 38.008,-46.647 65.554,-56.843c6.276,28.555 2.298,59.069 -12.084,85.599c-2.832,5.131 -5.807,9.857 -8.912,14.043c-31.862,43.412 -30.45,103.288 3.444,145.619l410.052,512.194c10.462,13.027 25.449,21.803 41.992,24.44c-0,0 1486.22,238.711 1488.98,239.186c82.832,14.108 163.848,-22.278 206.244,-92.76c18.092,-30.039 34.498,-59.681 49.349,-88.705c-9.115,60.222 -22.344,117.468 -41.25,166.14c-27.474,70.683 -39.226,143.053 -34.766,215.019c0.273,4.453 0.404,632.09 0.404,632.09c-0,8.978 1.823,17.891 5.332,26.191l133.196,316.146c0,0 0.339,421.53 0.808,424.838l-0.814,-0l-0,-0.007Z" style="fill-rule:nonzero;"/></g></g><g><g><path d="M796.27,292.246c-28.692,10.599 -52.93,31.393 -68.184,58.802l35.71,0c2.63,-6.347 5.403,-12.285 8.235,-17.552c7.357,-13.503 15.931,-26.126 25.313,-37.943c-0.397,-1.074 -0.671,-2.226 -1.074,-3.307Z" style="fill-rule:nonzero;"/></g></g><g><g><path d="M577.741,643.496c-36.79,0 -66.699,29.909 -66.699,66.699c-0,36.862 29.909,66.7 66.699,66.7c36.862,-0 66.699,-29.838 66.699,-66.7c0,-36.79 -29.837,-66.699 -66.699,-66.699Z" style="fill-rule:nonzero;"/></g></g><g id="SVGCleanerId_1"><g><path d="M1200.51,1785.15c-50.833,-18.158 -90.729,-60.755 -109.635,-117.129l-61.706,-197.669c-11.074,-35.645 -48.945,-55.424 -84.518,-44.356c-35.645,11.139 -55.495,48.945 -44.356,84.59l61.908,198.275c0.065,0.338 0.202,0.677 0.267,0.944c0.065,0.136 0.273,0.677 0.273,0.742c31.934,95.931 102.006,169.518 192.403,201.784c7.493,2.702 15.123,3.912 22.682,3.912c27.747,0 53.737,-17.213 63.594,-44.824c12.487,-35.097 -5.808,-73.717 -40.912,-86.269Z" style="fill-rule:nonzero;"/></g></g><g><g><path d="M1200.51,1785.15c-50.833,-18.158 -90.729,-60.755 -109.635,-117.129l-61.706,-197.669c-11.074,-35.645 -48.945,-55.424 -84.518,-44.356c-35.645,11.139 -55.495,48.945 -44.356,84.59l61.908,198.275c0.065,0.338 0.202,0.677 0.267,0.944c0.065,0.136 0.273,0.677 0.273,0.742c31.934,95.931 102.006,169.518 192.403,201.784c7.493,2.702 15.123,3.912 22.682,3.912c27.747,0 53.737,-17.213 63.594,-44.824c12.487,-35.097 -5.808,-73.717 -40.912,-86.269Z" style="fill-rule:nonzero;"/></g></g><path d="M1272.48,1607.01c-9.015,-5.75 -20.618,-5.448 -29.322,0.763c-8.703,6.211 -12.762,17.085 -10.256,27.48c34.669,127.872 182.221,404.996 814.206,325.519c606.435,-76.265 189.531,-280.873 -257.055,-203.833c-194.912,33.624 -419.768,-88.544 -517.573,-149.929Z" style="fill:#5c330a;fill-opacity:0.49;"/></svg>