<?xml version="1.0" encoding="UTF-8" standalone="no"?><!DOCTYPE svg PUBLIC "-//W3C//DTD SVG 1.1//EN" "http://www.w3.org/Graphics/SVG/1.1/DTD/svg11.dtd"><svg width="100%" height="100%" viewBox="0 0 3334 3334" version="1.1" xmlns="http://www.w3.org/2000/svg" xmlns:xlink="http://www.w3.org/1999/xlink" xml:space="preserve" xmlns:serif="http://www.serif.com/" style="fill-rule:evenodd;clip-rule:evenodd;stroke-linecap:round;stroke-linejoin:round;stroke-miterlimit:1.5;"><g><g><path d="M896.97,896.97l-444.445,234.343l-125.252,315.152l36.363,343.434l169.697,246.465l109.091,129.293l-16.161,424.242l218.181,101.01l88.889,-149.495l258.586,-92.929c9.286,-281.923 282.509,-308.423 626.263,-266.667l28.283,452.525l303.03,12.122c32.282,-128.779 428.015,-121.104 250.505,-375.758l169.697,-286.869l-561.616,-214.141l-141.414,-319.192l-36.364,-468.687l-351.515,-72.727l-581.818,-12.121Z" style="fill:#f3c5c9;stroke:#000;stroke-width:4.17px;"/><path d="M1688.89,759.596l-60.606,-335.354l262.626,80.809l218.182,181.818l391.919,-28.283l266.667,56.566l214.141,-210.101l298.99,-56.566l-8.081,206.06l-230.303,234.344l-20.202,315.151l-52.525,464.647l-286.869,161.616l-193.939,68.687l-432.323,-80.808l-145.455,-197.98l-60.606,-359.596l-4.04,-315.151l-157.576,-185.859" style="fill:#f3c5c9;stroke:#000;stroke-width:4.17px;"/><path d="M602.02,2682.83l344.838,-79.831l309.708,-162.593l8.08,286.869l-622.222,173.737l-40.404,-218.182Z" style="fill:#ed967a;stroke:#000;stroke-width:4.17px;"/><path d="M1785.86,2707.07l344.838,-79.832l309.707,-162.593l8.081,286.869l-622.222,173.738l-40.404,-218.182Z" style="fill:#ed967a;stroke:#000;stroke-width:4.17px;"/><path d="M3318.14,447.819c-6.204,-23.203 -24.316,-41.315 -47.52,-47.52c-155.377,-41.458 -322.46,3.347 -436.035,116.915c-37.558,37.623 -68.073,81.451 -90.299,129.316c-99.916,-36.094 -204.011,-54.414 -310.482,-54.629l-0.208,0c-106.393,0.208 -210.56,18.6 -310.41,54.629c-22.227,-47.865 -52.748,-91.764 -90.3,-129.316c-113.574,-113.568 -280.729,-158.373 -436.107,-116.915c-23.131,6.205 -41.25,24.317 -47.448,47.52c-37.207,139.492 -4.947,288.32 84.239,399.525l-671.543,-0c-189.59,-0 -367.826,73.789 -501.882,207.916c-43.828,43.757 -81.107,92.181 -111.549,144.232c-26.198,38.392 -69.186,61.315 -115.801,61.315c-54.421,0 -98.731,-44.244 -98.731,-98.73c0,-36.094 29.402,-65.567 65.567,-65.567c4.668,0 9.336,0.905 13.795,2.507c34.701,12.891 73.301,-4.74 86.257,-39.44c12.891,-34.701 -4.74,-73.301 -39.434,-86.257c-19.44,-7.246 -39.856,-10.937 -60.618,-10.937c-110.163,-0.007 -199.629,89.603 -199.629,199.687c-0,128.412 104.447,232.858 232.786,232.858c13.028,0 25.918,-1.048 38.601,-2.786c-12.683,53.444 -19.232,108.698 -19.232,165.065c-0,231.816 111.133,445.443 298.913,578.665l-0,745.261c-0,37.07 30.032,67.096 67.031,67.096l321.139,0c37.071,0 67.097,-30.032 67.097,-67.096l-0,-72.676l221.992,0c36.999,0 67.031,-30.033 67.031,-67.096l0,-474.427l468.854,-0l0,614.199c0,37.07 30.033,67.096 67.097,67.096l321.139,0c36.999,0 67.031,-30.032 67.031,-67.096l0,-72.676l221.992,0c37.071,0 67.032,-30.033 67.032,-67.096l-0,-619.004c21.178,-17.071 41.595,-35.326 61.106,-54.837c29.89,-29.89 57.344,-62.364 81.869,-96.713c252.578,-89.811 433.945,-331.243 433.945,-614.271l0,-388.795c42.715,-21.458 81.524,-49.538 115.801,-83.893c113.568,-113.568 158.372,-280.651 116.914,-436.029Zm-2445.92,2366.28l-187.012,-0l-0,-79.011l187.012,0l-0,79.011Zm289.016,-139.773l-154.889,0l0,-79.01l154.889,0l0,79.01Zm0,-213.138l-154.889,0l0,-194.257l154.889,-0l0,194.257Zm924.122,352.911l-187.012,-0l-0,-79.011l187.012,0l-0,79.011Zm289.088,-139.773l-154.961,0l0,-79.01l154.961,0l0,79.01Zm0,-213.138l-154.961,0l0,-193.698c53.932,-13.795 105.768,-33.372 154.961,-58.32l0,252.018Zm-219.831,-314.453c-0.696,0 -1.464,-0.136 -2.161,-0.136c-37.07,-0 -67.096,30.032 -67.096,67.096l-0,387.259l-187.012,0l-0,-401.061c-0,-36.999 -29.961,-67.031 -67.031,-67.031l-892.071,-0c-18.535,-0 -35.254,7.526 -47.383,19.648c-12.122,12.122 -19.648,28.913 -19.648,47.383l0,401.061l-187.012,0l0,-500.762c0,-23.411 -12.057,-44.036 -30.306,-56.022c-0.28,-0.208 -0.56,-0.416 -0.833,-0.625c-167.643,-106.328 -267.767,-288.183 -267.767,-486.341c0,-153.848 59.85,-298.424 168.62,-407.122c108.763,-108.763 253.346,-168.62 407.122,-168.62l820.026,-0l0,375.071c0,359.323 292.364,651.687 651.686,651.687l2.37,-0c-83.554,92.044 -281.504,138.515 -281.504,138.515Zm951.778,-1357.71c-32.051,32.051 -69.675,56.439 -111.765,72.396c-26.061,9.824 -43.339,34.838 -43.339,62.709l-0,432.415c-0,285.397 -232.162,517.63 -517.559,517.63c-285.397,0 -517.63,-232.233 -517.63,-517.63l-0,-432.415c-0,-27.871 -17.207,-52.885 -43.268,-62.709c-42.084,-15.957 -79.708,-40.345 -111.765,-72.396c-70.306,-70.234 -103.118,-169.661 -90.091,-266.998c97.337,-13.028 196.764,19.785 267.07,90.019c38.881,38.88 67.097,87.377 81.524,140.117c9.824,35.743 46.686,56.784 82.428,46.96c3.347,-0.976 6.55,-2.161 9.688,-3.555l0.071,0.137c102.422,-45.983 210.775,-69.466 321.973,-69.674c111.204,0.208 219.551,23.691 322.044,69.674l0.137,-0.071c3.066,1.321 6.204,2.578 9.544,3.483c35.677,9.752 72.604,-11.218 82.357,-46.96c14.492,-52.747 42.708,-101.172 81.589,-140.117c70.306,-70.235 169.661,-103.054 267.07,-90.02c13.047,97.344 -19.772,196.771 -90.078,267.005Z" style="fill-rule:nonzero;"/></g><path d="M2286.87,1292.93l169.697,-40.404l181.818,64.647l84.848,109.091l-56.565,173.737l-270.707,76.768l-161.617,-68.687l-72.727,-88.889l12.121,-145.455l113.132,-80.808Z" style="fill:#f39cc9;stroke:#000;stroke-width:4.17px;"/><path d="M1709.28,555.878c0,-0 328.574,147.645 222.207,246.415c-106.38,98.782 -222.207,-246.415 -222.207,-246.415Z" style="fill:#d69ea5;"/><path d="M3160.57,551.837c0,0 -328.573,147.645 -222.206,246.416c106.379,98.782 222.206,-246.416 222.206,-246.416Z" style="fill:#d69ea5;"/></g><g><g><path d="M1478.41,1157.29l-596.536,0c-37.031,0 -67.057,30.026 -67.057,67.057c-0,37.032 30.026,67.058 67.057,67.058l596.536,-0c37.032,-0 67.058,-30.026 67.058,-67.058c-0,-37.031 -30.026,-67.057 -67.058,-67.057Z" style="fill-rule:nonzero;"/></g></g><g><g><path d="M2433.73,1189.53c-189.661,-0 -343.99,127.786 -343.99,284.909c-0,157.122 154.336,284.974 343.99,284.974c189.655,-0 343.991,-127.859 343.991,-284.974c0,-157.116 -154.329,-284.909 -343.991,-284.909Zm0,449.134c-123.118,-0 -223.313,-73.646 -223.313,-164.225c-0,-90.58 100.195,-164.226 223.313,-164.226c123.119,0 223.314,73.646 223.314,164.226c0,90.579 -100.195,164.225 -223.314,164.225Z" style="fill-rule:nonzero;"/></g></g><g><g><circle cx="2326.01" cy="1474.43" r="59.935"/></g></g><g><g><circle cx="2541.38" cy="1474.43" r="59.935"/></g></g><g><g><circle cx="2154.05" cy="1037.97" r="66.595"/></g></g><g><g><circle cx="2713.41" cy="1037.97" r="66.595"/></g></g></svg>