<?xml version="1.0" encoding="UTF-8" standalone="no"?><!DOCTYPE svg PUBLIC "-//W3C//DTD SVG 1.1//EN" "http://www.w3.org/Graphics/SVG/1.1/DTD/svg11.dtd"><svg width="100%" height="100%" viewBox="0 0 3334 3334" version="1.1" xmlns="http://www.w3.org/2000/svg" xmlns:xlink="http://www.w3.org/1999/xlink" xml:space="preserve" xmlns:serif="http://www.serif.com/" style="fill-rule:evenodd;clip-rule:evenodd;stroke-linecap:round;stroke-linejoin:round;stroke-miterlimit:1.5;"><path d="M96.852,823.245l-32.284,145.278l149.314,32.284l-8.071,104.923l-56.497,125.101c-0,0 -8.071,100.888 -4.036,149.314c4.036,48.426 12.107,121.066 12.107,121.066l32.284,338.983l234.06,262.308c164.551,58.827 185.604,180.434 177.562,314.77c236.24,212.485 320.325,69.35 677.966,-32.284l463.93,-74.348l48.581,203.484c314.088,102.88 541.443,-70.585 726.392,-355.125l242.131,-476.19l-80.711,-238.096l-36.319,-153.349l-52.462,-157.385l37.89,-233.634c161.421,-33.445 237.869,-106.878 216.347,-226.414l-343.018,-129.137l-209.847,72.639l-347.054,-88.781l-238.095,44.391l-532.688,-56.497l-213.882,104.923l-577.078,137.207l-286.522,64.569Z" style="fill:#fff;"/><clipPath id="_clip1"><path d="M96.852,823.245l-32.284,145.278l149.314,32.284l-8.071,104.923l-56.497,125.101c-0,0 -8.071,100.888 -4.036,149.314c4.036,48.426 12.107,121.066 12.107,121.066l32.284,338.983l234.06,262.308c164.551,58.827 185.604,180.434 177.562,314.77c236.24,212.485 320.325,69.35 677.966,-32.284l463.93,-74.348l48.581,203.484c314.088,102.88 541.443,-70.585 726.392,-355.125l242.131,-476.19l-80.711,-238.096l-36.319,-153.349l-52.462,-157.385l37.89,-233.634c161.421,-33.445 237.869,-106.878 216.347,-226.414l-343.018,-129.137l-209.847,72.639l-347.054,-88.781l-238.095,44.391l-532.688,-56.497l-213.882,104.923l-577.078,137.207l-286.522,64.569Z"/></clipPath><g clip-path="url(#_clip1)"><path d="M564.972,2163.03l20.177,230.024l80.711,92.817l242.13,-12.107l193.705,52.462l133.172,-242.131l403.551,64.568l125.101,104.924l391.445,84.745l193.704,-80.71l80.711,-217.918l338.983,-621.468l-173.527,-391.445l12.106,-359.161l201.776,-36.319l24.213,-201.776l-318.806,-40.355l-173.527,-36.32l-100.888,117.03l-153.349,149.314l-286.521,302.663l-831.316,577.079l-403.551,464.084Z" style="fill:#fff;stroke:#fff;stroke-width:4.17px;"/></g><path d="M2602.91,1150.12l-0,-234.06l274.414,-137.207l225.989,4.035l149.314,173.527l-20.177,254.238l-185.634,165.456l-391.445,-16.142l-52.461,-209.847" style="fill:#f2e4e3;stroke:#fff;stroke-width:4.17px;"/><path d="M682.002,2554.48l407.586,-16.142l4.036,270.38l-411.622,-20.178l-0,-234.06Z" style="fill:#2c1b00;"/><path d="M1815.98,2562.55l407.586,-16.142l4.036,270.38l-411.622,-20.178l-0,-234.06Z" style="fill:#2c1b00;"/><g><g><path d="M2955.74,700.182l-46.758,0c-10.58,-108.255 -102.051,-193.099 -212.988,-193.099c-34.349,0 -67.494,8.112 -97.253,23.275c-48.73,-40.69 -111.009,-63.893 -175.469,-63.893c-81.178,-0 -154.166,35.618 -204.316,91.966c-30.749,-11.634 -63.542,-17.773 -97.116,-17.773c-10.365,-0 -20.736,0.631 -31.029,1.764c-49.225,-41.823 -112.064,-65.306 -177.37,-65.306c-61.217,-0 -119.329,20.098 -166.582,56.491c-70.24,-50.918 -154.453,-78.425 -242.747,-78.425c-70.312,0 -138.092,17.422 -198.815,50.71c-45.983,-32.656 -101.484,-50.71 -158.47,-50.71c-95.775,0 -181.673,48.802 -230.899,126.595c-43.092,-14.739 -88.58,-22.356 -134.348,-22.356c-126.524,-0 -246.348,58.821 -324.493,156.497c-21.582,-5.078 -44.147,-6.491 -66.295,-3.88c-29.479,-24.121 -66.719,-37.735 -105.645,-37.735c-38.509,0 -75.182,13.19 -104.518,36.817c-100.651,6.341 -180.625,90.267 -180.625,192.526c-0,91.614 64.18,168.483 149.935,188.092c-76.029,77.227 -118.906,181.042 -118.906,290.638c-0,91.895 30.117,180.124 85.618,252.344c-12.344,39.707 -18.62,80.964 -18.62,123.138c0,203.255 147.116,375.619 345.365,408.978c14.811,12.272 30.045,24.049 45.56,35.26l-0,102.051c-0,98.945 50.989,191.406 132.591,244.935l-0,270.534c-0,32.298 26.237,58.535 58.535,58.535l405.456,0c32.298,0 58.535,-26.237 58.535,-58.535l0,-270.527c53.809,-35.332 94.29,-87.52 115.664,-147.403c67.774,40.69 145.566,62.559 225.964,62.559c65.377,-0 128.567,-14.173 186.471,-41.328c22.78,50.989 60.019,95.136 107.2,126.172l0,270.533c0,32.299 26.237,58.536 58.536,58.536l404.674,-0c32.37,-0 58.607,-26.237 58.607,-58.536l-0,-270.533c81.53,-53.529 132.519,-145.99 132.519,-244.935l0,-22.709c182.735,-45.065 314.968,-209.883 314.968,-402.702c-0,-10.931 -0.495,-22.005 -1.341,-33.079c53.528,-51.204 84.629,-122.643 84.629,-197.754c-0,-65.872 -24.265,-129.909 -67.279,-179.42c-0.215,-4.304 -0.566,-8.672 -0.846,-12.976l191.901,0c208.19,0 377.597,-169.401 377.597,-377.662c0,-208.269 -169.401,-377.67 -377.597,-377.67Zm-731.914,107.624c32.584,-4.512 56.634,-32.513 56.211,-65.378c-0,-0.918 -0.072,-1.836 -0.144,-3.033c0.352,-78.777 64.532,-142.813 143.379,-142.813c45.768,0 87.806,21.159 115.169,58.04c11.283,15.163 28.562,24.688 47.461,26.094c18.9,1.341 37.377,-5.501 50.782,-18.9c15.8,-15.865 36.888,-24.544 59.31,-24.544c46.263,0 83.854,37.591 83.854,83.854c-0,8.607 -3.737,24.896 -3.809,25.039c-10.651,34.063 -42.526,58.815 -80.045,58.815c-18.269,0 -35.684,-5.852 -50.495,-17.07c-15.091,-11.426 -34.414,-15.729 -52.897,-11.777c-18.549,4.017 -34.414,15.801 -43.444,32.441c-8.672,15.801 -20.098,29.694 -33.991,41.328c-25.248,21.088 -30.749,57.689 -12.839,85.267c29.903,46.127 45.632,99.584 45.632,154.59c-0,45.345 -10.365,88.789 -30.964,129.063c-14.036,27.643 -6.699,61.354 17.63,80.612c20.313,16.08 31.947,39.987 31.947,65.729c0,46.263 -37.591,83.854 -83.854,83.854c-32.585,-0 -61.498,-18.34 -75.677,-47.956c-10.931,-23.06 -34.063,-37.025 -58.679,-37.025c-5.221,0 -61.783,10.437 -85.123,10.437c-156.993,-0 -284.785,-127.722 -284.785,-284.714c0.013,-141.4 105.514,-262.63 245.371,-281.953Zm-1399.73,1953.21l-85.404,-0l0,-167.5c14.108,2.116 28.353,3.242 42.878,3.242c14.388,-0 28.561,-1.126 42.526,-3.171l0,167.429Zm35.547,-299.733c-0.846,0.351 -52.539,18.339 -78.073,18.339c-26.589,0 -52.187,-5.781 -76.1,-17.278c-60.371,-29.056 -99.369,-91.12 -99.369,-158.19l0,-30.892c39.987,20.097 81.53,37.096 124.336,50.638c70.104,22.142 142.741,35.052 216.517,38.437c-7.194,20.521 -18.125,39.779 -32.585,56.491c-15.377,17.767 -33.782,32.018 -54.726,42.455Zm167.357,299.733l-85.476,-0l0,-167.429c13.965,2.045 28.21,3.171 42.598,3.171c14.46,-0 28.776,-1.126 42.878,-3.242l-0,167.5Zm33.144,-298.679c-13.47,6.491 -27.578,11.074 -42.031,13.965c21.016,-28.913 36.465,-61.289 45.768,-95.56c4.863,0.28 9.805,0.423 14.668,0.423c22.709,0 45.065,-2.819 66.791,-8.248c-16.504,38.431 -46.407,70.735 -85.196,89.42Zm921.068,298.679l-84.772,-0l-0,-167.5c14.173,2.116 28.489,3.242 42.949,3.242c14.173,-0 28.066,-1.126 41.823,-3.034l-0,167.292Zm26.732,-295.365c-21.582,9.238 -44.571,13.965 -68.548,13.965c-26.589,-0 -52.188,-5.781 -76.029,-17.279c-41.823,-20.097 -73.626,-56.282 -89.076,-99.017l141.758,0c66.009,0 131.25,-7.76 194.792,-22.636c-6.133,28.704 -19.251,55.644 -38.718,78.216c-13.613,15.794 -59.453,43.58 -64.179,46.751Zm176.1,295.365l-84.629,-0l0,-167.286c13.685,1.902 27.643,3.034 41.751,3.034c14.532,0 28.776,-1.126 42.878,-3.242l-0,167.494Zm33.216,-298.679c-13.262,6.42 -27.083,10.931 -41.256,13.75c36.178,-49.791 55.924,-109.948 55.924,-171.94l0,-1.549c11.497,-4.655 22.852,-9.453 34.063,-14.532c16.783,2.754 33.711,4.441 50.566,5.15c0.006,0 7.272,116.934 -99.297,169.121Zm423.581,-697.148c-20.593,14.531 -31.029,39.635 -26.66,64.459c2.89,16.433 4.375,33.008 4.375,49.089c-0,144.368 -107.904,265.95 -251.146,282.806c-31.738,3.809 -63.965,2.187 -95.703,-4.863c-14.317,-3.243 -29.336,-1.478 -42.526,4.935c-24.825,12.057 -50.782,22.78 -77.155,31.946c-75.677,26.309 -155.085,39.636 -235.977,39.636l-174.199,-0c-16.504,-0 -32.441,6.276 -44.505,17.558c-9.03,8.464 -18.828,16.504 -29.128,23.978c-53.249,38.861 -116.367,59.382 -182.519,59.382c-78.705,-0 -153.887,-29.694 -211.648,-83.503c-12.057,-11.211 -27.858,-17.422 -44.362,-17.422l-66.647,0c-9.095,0 -18.125,1.901 -26.373,5.573c-31.947,14.108 -67.702,16.289 -101.843,5.43c-4.798,-1.478 -31.595,-11.003 -40.762,-11.003c0,0 -154.453,-11.211 -224.414,-33.359c-65.872,-20.808 -128.287,-51.061 -185.768,-89.994c-24.193,-16.36 -47.676,-34.485 -69.752,-53.743c-9.877,-8.607 -22.142,-14.037 -35.196,-15.586c-142.955,-16.927 -250.787,-138.444 -250.787,-282.669c-0,-38.51 7.545,-75.886 22.428,-110.938c10.085,-23.698 5.221,-51.133 -12.415,-69.889c-49.649,-53.034 -77.012,-122.149 -77.012,-194.649c-0,-84.98 37.591,-164.889 103.112,-219.192c14.668,-12.201 23.275,-30.254 23.483,-49.297c0.28,-22.637 5.71,-44.219 16.152,-64.252c12.839,-24.752 8.535,-54.941 -10.788,-75.039c-19.251,-20.097 -49.225,-25.742 -74.472,-13.965c-8.184,3.809 -16.856,5.782 -25.814,5.782c-34.557,-0 -62.695,-28.138 -62.695,-62.767c-0,-34.629 28.138,-62.767 62.695,-62.767c2.116,-0 40.553,8.535 63.965,-22.923c6.627,-8.959 17.35,-13.542 28.353,-13.542c12.057,0 23.411,5.996 30.325,16.081c16.784,24.544 48.099,34.485 76.029,24.258c18.62,-6.843 38.294,-4.512 54.726,5.781c14.812,9.381 32.793,12.344 49.864,8.249c17.07,-4.089 31.738,-14.883 40.69,-29.974c51.204,-85.899 145,-139.291 244.798,-139.291c47.884,0 93.444,11.498 135.41,34.134c17.136,9.239 37.448,10.365 55.436,3.034c18.054,-7.337 31.81,-22.357 37.592,-40.905c18.763,-60.084 73.769,-100.501 136.822,-100.501c40.131,-0 77.37,16.224 104.87,45.703c22.357,23.978 59.173,27.578 85.69,8.32c48.802,-35.332 106.426,-54.023 166.726,-54.023c75.39,-0 146.484,29.271 200.149,82.305c13.19,13.046 31.244,19.889 49.72,18.691c18.477,-1.126 35.619,-10.085 47.038,-24.544c27.435,-34.629 68.412,-54.518 112.415,-54.518c40.977,-0 80.046,17.63 107.273,48.307c16.224,18.268 41.256,25.95 64.882,19.889c11.849,-3.105 24.05,-4.583 36.25,-4.583c12.201,-0 24.122,1.549 35.684,4.512c-1.126,4.654 -2.187,9.309 -3.034,14.036c-177.728,48.379 -306.152,212.07 -306.152,400.378c-0,228.717 186.12,414.83 414.902,414.83c18.197,0 36.393,-1.198 54.447,-3.528c40.13,48.522 100.709,78.073 165.032,78.073c61.003,-0 116.088,-25.671 155.085,-66.719c3.105,11.634 9.381,22.357 18.34,30.749c29.479,27.506 45.703,64.674 45.703,104.733c-0.007,46.575 -22.852,90.442 -61.009,117.311Zm314.896,-439.798l-262.709,-0c-6.276,-33.217 -20.241,-64.317 -40.905,-90.977c9.519,-25.319 21.088,-80.612 21.231,-81.881c3.105,-20.593 4.798,-41.537 4.798,-62.767c0,-55.573 -11.074,-110.02 -32.37,-160.586c16.289,3.952 33.08,5.924 50.215,5.924c78.145,0 146.621,-42.103 184.004,-104.798l75.742,-0c136.465,-0 247.474,111.009 247.474,247.546c0,136.464 -111.009,247.539 -247.48,247.539Z" style="fill-rule:nonzero;"/></g></g><g><g><circle cx="2811.8" cy="1048.16" r="74.427"/></g></g><g><g><path d="M695.228,1094.75c-49.792,-13.288 -103.353,1.055 -139.785,37.487c-36.465,36.471 -50.808,90.039 -37.442,139.831c7.025,26.146 30.671,43.385 56.517,43.385c5.02,0 10.137,-0.651 15.222,-2.018c31.237,-8.385 49.759,-40.501 41.367,-71.738c-2.591,-9.629 0.084,-19.584 7.142,-26.647c7.063,-7.064 17.057,-9.766 26.744,-7.149c31.224,8.34 63.327,-10.215 71.68,-41.465c8.36,-31.243 -10.202,-63.34 -41.445,-71.686Z" style="fill-rule:nonzero;"/></g></g><g><g><path d="M1456.96,1411.02c-41.843,-41.843 -103.373,-58.353 -160.599,-43.073c-31.244,8.353 -49.805,40.442 -41.465,71.679c8.353,31.25 40.462,49.805 71.693,41.465c16.953,-4.524 35.175,0.345 47.565,12.735c12.376,12.376 17.252,30.553 12.714,47.441c-8.391,31.23 10.131,63.346 41.361,71.738c5.091,1.367 10.195,2.019 15.228,2.019c25.84,-0 49.492,-17.24 56.51,-43.386c15.359,-57.181 -1.126,-118.737 -43.007,-160.618Z" style="fill-rule:nonzero;"/></g></g><g><g><path d="M1530.03,798.724c-57.2,-15.28 -118.743,1.23 -160.592,43.073c-41.895,41.888 -58.373,103.437 -43.015,160.631c7.019,26.153 30.671,43.386 56.511,43.386c5.026,-0 10.143,-0.651 15.228,-2.018c31.23,-8.392 49.759,-40.508 41.36,-71.739c-4.538,-16.888 0.339,-35.065 12.722,-47.448c12.382,-12.382 30.605,-17.272 47.558,-12.727c31.231,8.339 63.34,-10.222 71.686,-41.472c8.353,-31.237 -10.208,-63.333 -41.458,-71.686Z" style="fill-rule:nonzero;"/></g></g><g><g><path d="M892.292,1785.76c-41.862,-41.842 -103.386,-58.346 -160.606,-43.053c-31.243,8.353 -49.798,40.449 -41.445,71.693c8.353,31.243 40.436,49.824 71.699,41.445c16.94,-4.525 35.163,0.351 47.546,12.728c12.376,12.383 17.259,30.566 12.721,47.454c-8.392,31.231 10.137,63.346 41.361,71.738c5.091,1.368 10.195,2.019 15.228,2.019c25.839,-0 49.492,-17.24 56.51,-43.386c15.358,-57.187 -1.12,-118.737 -43.014,-160.638Z" style="fill-rule:nonzero;"/></g></g><g><g><path d="M2110.19,1758.72c-49.798,-13.287 -103.373,1.055 -139.785,37.487c-36.465,36.465 -50.808,90.039 -37.442,139.825c7.025,26.152 30.671,43.379 56.517,43.379c5.02,-0 10.137,-0.651 15.222,-2.019c31.23,-8.385 49.759,-40.501 41.367,-71.738c-2.578,-9.622 0.091,-19.583 7.148,-26.647c7.057,-7.07 17.057,-9.759 26.738,-7.155c31.231,8.353 63.347,-10.215 71.693,-41.465c8.346,-31.217 -10.208,-63.327 -41.458,-71.667Z" style="fill-rule:nonzero;"/></g></g></svg>