<svg xmlns="http://www.w3.org/2000/svg" xml:space="preserve" style="fill-rule:evenodd;clip-rule:evenodd;stroke-linejoin:round;stroke-miterlimit:2" viewBox="0 0 1920 1920"><path d="M1749.46 829.738c-9.549-51.826-29.772-98.915-62.072-140.71-35.951-46.532-82.013-79.411-135.94-102.259-2.528-1.114-3.651-2.786-4.494-5.294-4.213-12.817-7.583-25.913-13.2-38.173-15.167-33.714-38.76-61.578-64.6-87.769-58.982-59.35-127.233-105.603-201.382-144.612-87.631-45.974-180.318-76.067-277.498-93.064-30.615-5.294-61.51-9.195-92.406-12.259-32.019-3.344-64.038-4.737-96.057-7.245 0 .557-.28.836-.28 1.393 30.895 6.966 61.51 15.604 89.596 28.142-21.345-.836-43.534-2.507-66.003-2.507-22.189-.279-44.378.278-66.566 1.393-22.189 1.114-44.377 3.343-66.566 5.851a1330.83 1330.83 0 0 0-65.723 9.195c-21.627 3.622-43.254 8.08-64.881 11.981 41.569 3.622 82.576 10.031 123.021 21.455-114.875 27.585-224.133 68.544-324.684 130.958 37.075-8.359 74.43-14.21 112.347-16.161 37.918-1.671 75.554-1.393 114.314 5.573-51.961 18.947-99.708 44.303-144.647 74.117-45.22 30.092-86.227 65.479-123.582 104.488-37.356 39.009-70.498 81.361-96.057 129.007 57.016-50.432 121.335-86.376 197.45-99.472-62.914 40.123-114.594 91.392-158.409 151.02-43.816 59.349-78.363 123.435-96.338 195.322a6.54 6.54 0 0 0 1.966-1.95c13.762-27.027 30.334-52.105 49.433-75.51 28.929-35.108 61.229-66.593 100.27-90.835 14.324-8.916 29.491-16.439 44.096-24.519l1.685-.836.843.836-1.686.835c-22.469 22.291-41.849 46.532-57.578 73.839-34.827 60.742-54.769 126.221-60.948 195.879-3.932 43.467-1.404 86.656 7.022 129.287 10.392 51.547 27.806 101.144 51.68 148.233 11.515 22.848 24.716 44.86 37.074 67.43.562-.279.843-.279 1.404-.557-16.571-59.071-13.762-117.863 3.09-176.097 8.707 94.178 38.198 181.112 90.439 260.244 52.242 78.854 117.684 144.054 199.698 192.536-29.491-43.745-51.118-90.834-60.387-142.939-9.269-52.105-9.83-103.652 5.056-154.921.561 1.115.842 2.508 1.123 3.623 3.651 18.111 6.46 36.501 11.516 54.055 18.256 66.872 52.803 124.828 99.989 175.261 15.728 16.996 32.3 33.157 51.118 47.089.281.836.842 1.393 1.123 2.229.281-.279.843-.557 1.124-.836-.562-.557-.843-1.393-1.405-1.95-24.997-56.842-36.793-116.191-30.053-178.326.843-7.524 2.528-14.768 3.933-22.013 8.987 21.455 18.818 41.517 30.895 60.743 34.266 54.333 80.609 96.129 135.098 129.843 19.099 11.703 38.759 23.127 56.173 37.616 20.223 17.275 38.198 36.222 50.837 59.628.562.836 1.124 1.95 2.247 3.622-2.808-76.624-20.784-148.791-48.871-218.728 57.859 55.727 110.1 115.633 145.209 189.193 0-1.672.281-2.787.281-3.622-.562-15.325-.843-30.372-2.247-45.697-3.371-37.615-11.797-74.116-24.436-109.781-4.213-11.982-9.268-23.963-13.762-35.944-.281-.558-.281-.836-.562-1.393.281.278.843.557 1.124.835 1.123 1.115 2.527 2.23 3.651 3.623 26.121 28.142 50.556 57.956 71.621 90.277 25.278 38.73 46.905 79.132 59.544 123.435.281.557.562.836 1.124 1.951 45.5-34.551 70.217-78.018 64.038-136.81 32.58 35.944 51.679 78.018 62.071 124.828.281-1.114.562-1.671.562-2.229 7.022-33.993 6.179-67.986.281-101.98-6.179-36.501-17.414-71.609-33.142-105.045-11.516-24.52-25.278-47.925-37.918-71.888-.561-1.393-.842-2.786-1.404-4.458 9.55 10.588 19.38 20.619 28.368 31.486 44.377 52.383 76.115 111.732 93.81 177.769 4.494 17.275 7.864 34.829 11.234 50.432 4.213-39.844 2.809-81.082-4.774-122.32-8.988-47.647-23.593-93.9-43.254-138.203-7.303-16.439-15.167-32.879-22.75-49.875.842.557 1.404 1.114 1.966 1.672 44.658 40.402 79.485 87.769 107.01 140.989 6.46 12.259 12.078 24.519 17.976 37.058l.281-.279c-5.337-18.668-10.111-37.615-16.29-56.284-13.201-40.68-33.424-78.296-53.646-115.912-21.908-40.68-42.973-81.918-58.14-125.664-14.886-42.91-25.559-86.655-21.346-132.63 1.966-20.34 8.145-39.287 20.223-56.005.561-.836.842-1.951 1.123-3.065l1.404 1.393c-.561 32.321 11.235 68.823 17.695 78.575.562-5.016.843-10.031 1.404-14.768 4.213-30.928 12.359-60.464 27.806-87.77 20.785-36.222 49.714-62.414 91.282-73.281 3.652-.835 7.022-.835 10.393.558 16.009 6.408 32.299 12.817 48.309 19.226 34.266 13.374 68.813 25.355 105.045 32.878 8.987 1.951 17.975 3.344 27.525 5.294-3.933 73.281-28.368 138.76-72.183 197.274 12.077-6.688 24.435-13.096 35.951-20.619 34.827-22.848 63.195-52.105 87.63-85.263 39.884-54.055 64.038-114.518 70.498-181.39 3.371-33.715 1.966-66.873-3.932-99.752ZM418.99 1181.375v-11.981c0-3.901.281-7.802.562-11.703 3.932-43.188 13.482-84.983 30.334-125.107 13.762-33.436 32.861-62.971 60.386-87.212 1.124-1.115 2.528-2.229 3.652-3.344-51.68 69.659-82.295 168.017-94.934 239.347Zm41.85 98.079c3.089 52.662 14.324 103.931 32.019 153.528 17.694 49.318 42.13 95.293 72.183 138.76-82.014-91.114-114.033-185.849-104.202-292.288Zm406.977 175.819c-14.043-48.483-16.29-97.244-2.527-146.283 1.685-6.13 4.213-11.703 6.179-17.554.842-1.951 1.685-3.901 2.808-5.852-5.898 49.04-3.37 97.801 5.337 146.283 8.707 48.204 23.874 94.457 43.254 139.317-23.874-36.222-42.973-74.395-55.051-115.911Zm-21.346-309.842c-12.077 27.585-19.099 56.284-20.503 86.377 0 1.393-.281 2.786-.562 5.015-7.302-42.352-2.527-103.652 23.593-155.756 24.436-48.761 61.791-86.098 107.011-116.191-5.617 2.229-11.235 4.458-16.852 6.966-63.757 28.142-117.684 68.265-158.129 125.385-23.874 33.994-38.76 71.609-45.5 112.29-5.899 35.944-3.933 71.609 1.685 107.274 7.864 48.761 23.031 95.293 40.445 141.547.842 1.95 1.404 3.9 1.685 6.129-59.825-102.537-99.146-210.926-95.495-331.853-.562 1.115-1.124 2.229-1.685 3.065-.562 1.114-.843 1.95-1.405 3.065-12.358 29.535-19.941 60.464-23.312 92.228-6.46 57.12-.281 113.404 13.763 168.852 1.685 6.409 3.089 13.096 4.775 19.505-.281 0-.843.278-1.124.278-4.494-11.702-9.269-23.684-13.482-35.386-15.728-43.189-26.401-87.491-33.142-132.909-6.46-42.631-7.583-85.541-3.651-128.45 7.864-86.098 41.849-160.494 105.044-220.679 11.797-11.424 25.84-20.619 39.041-30.649.843-.558 1.685-1.115 3.932-2.508-17.414 3.343-32.581 8.08-47.467 14.768-43.534 19.783-77.519 49.875-104.763 88.884-28.93 41.238-49.152 86.655-65.723 134.023-12.078 34.829-21.627 70.216-29.492 106.16v-5.294c1.124-29.536 1.124-59.071 3.09-88.606 4.494-62.136 14.886-123.156 37.917-181.67 16.852-42.909 41.007-81.361 75.554-112.289 20.503-18.39 43.253-32.879 68.531-44.025-6.459 1.115-12.919 1.672-19.099 3.065-73.587 16.997-139.872 49.597-199.416 95.293-46.062 35.387-86.226 76.346-121.616 122.321-.281.278-.842.557-1.123.836.281-.558.281-.836.562-1.393 4.774-16.718 9.268-33.437 14.324-50.155 16.852-54.055 39.04-105.602 67.408-154.642 27.525-47.089 61.229-89.163 104.202-123.435 46.063-36.779 98.585-61.021 156.725-72.723 35.67-6.966 71.34-9.195 107.572-7.245 7.303.279 14.605 1.115 21.908 1.672-2.247-1.114-4.775-2.229-7.303-3.065-32.3-10.031-65.161-16.718-98.865-20.34-80.89-8.638-156.163 8.637-226.942 47.368-14.605 7.801-28.087 17.275-42.411 25.913-.562.557-1.404 1.114-1.966 1.671l-.562-.557c.562-.557 1.405-1.114 1.966-1.672 17.695-13.095 34.828-27.027 53.084-39.566 36.794-25.355 76.958-44.024 119.65-57.677.843-.279 1.685-.557 2.809-1.115-13.201-3.622-51.118-3.065-73.587 0-24.436 3.065-48.029 8.917-71.622 16.44 12.358-11.981 57.859-32.6 92.968-42.91-5.899-1.114-11.797-2.508-17.695-3.622-24.717-3.901-49.714-5.016-74.711-2.786-11.235 1.114-22.189 3.343-33.143 5.015.562-.836 1.124-2.229 1.967-2.786 73.025-50.712 153.073-85.541 240.423-103.095 43.253-8.638 87.069-11.145 131.165-9.474 11.235.558 22.75 1.951 33.985 2.787.562 0 1.404-.279 2.247-.558-32.3-11.702-65.161-22.29-98.585-29.256-30.614-6.409-61.51-11.703-92.124-16.718-34.266-5.294-68.532-6.966-103.079-6.687-.281 0-.562-.279-1.966-.558 91.844-30.371 184.53-41.516 280.025-23.684-12.92-6.966-80.047-22.569-124.705-25.355 92.686-14.211 180.317 3.343 264.858 42.352-8.145-8.359-72.744-39.009-115.436-54.891-33.985-12.538-82.575-25.913-123.582-34.272 9.549-.836 19.099-2.229 28.648-2.508 120.212-5.851 232.559 21.177 336.199 81.919 3.371 1.95 6.741 3.901 10.392 5.851.281-.278.843-.557 1.124-.836-21.065-15.882-43.815-29.256-66.847-41.795-37.074-20.062-75.553-37.058-115.436-50.154-.843-.279-1.966-.836-2.809-1.951 11.516.836 23.312 1.115 34.828 2.508 152.792 21.176 289.013 82.476 413.999 170.803 32.862 23.405 63.195 49.876 88.473 81.64 16.853 21.176 30.053 44.303 36.232 71.052.281.836.281 1.671.281 2.229 0 .278-.281.557-.281.557-13.481-3.622-26.963-7.244-40.725-10.867-2.809-.836-4.494-1.672-5.337-4.737-2.528-9.752-7.583-18.111-14.043-25.634-.562 8.638-1.405 17.554-1.966 26.192-.562 0-.843.278-1.405.278-3.651-16.718-12.358-30.371-26.682-40.959 4.213 23.684.562 45.975-7.303 69.101-2.247-13.374-5.617-25.355-11.796-36.222-.281-.557-.281-1.115-.562-1.672h-.562c0 .836.281 1.393.281 2.229 2.528 23.127-2.528 44.86-10.392 66.315-1.966 5.294-4.213 10.31-6.46 15.325-.281-12.26-2.247-23.962-6.179-35.386-3.932-11.146-8.707-21.734-16.29-30.929 11.234 23.405 13.481 51.548 6.179 81.083-4.775-19.226-14.044-34.551-27.244-47.647l-.562-.557c-.281-.557-.562-1.393-.843-1.95-.281.278-.842.557-1.123 1.114.281.557.842.836 1.123 1.393.281.279.562.836.843 1.115 10.673 19.504 14.043 40.68 12.077 63.807-.842-1.672-1.123-2.508-1.404-3.344-10.111-28.42-30.615-46.531-58.702-55.726-20.222-6.688-41.006-11.424-61.51-16.718-30.053-7.524-58.42-18.948-86.226-32.043-68.532-32.879-135.379-69.659-201.663-106.717-7.303-3.901-14.606-7.802-21.908-11.982 32.861 26.749 65.442 53.498 98.023 80.247-.281.557-.562.836-.843 1.393-7.583-1.393-14.886-2.786-22.469-4.179-19.661-3.344-39.884-3.901-59.544-1.951-41.569 4.18-82.856 5.016-124.144 0-32.3-3.901-64.319-10.031-96.338-15.325-10.673-1.671-21.065-4.179-31.457-5.572 27.806 9.473 55.612 18.39 83.137 28.142 27.244 10.031 55.05 19.226 81.452 34.829-12.078 0-23.031.557-33.704 0-61.791-4.179-119.088-24.798-176.666-45.696-1.405-.557-2.528-.836-4.213-.279 4.213 2.508 8.145 4.737 12.358 7.245 42.411 24.798 88.192 40.68 137.063 47.646 33.705 4.737 67.69 6.13 101.955 5.852 3.371 0 7.303.557 10.393 1.95 13.762 6.687 27.525 13.932 41.006 21.176 2.528 1.393 4.775 3.344 7.022 5.016-.281.557-.281 1.114-.562 1.672-26.963-5.295-53.646-10.867-80.609-16.161 46.905 14.489 92.125 32.321 129.761 64.922-18.256-1.115-35.108-7.524-52.241-13.375-.281.557-.562 1.115-.562 1.672 34.828 15.882 69.936 32.043 104.764 47.925-.281.557-.281 1.115-.562 1.393-18.256 3.344-36.232.557-54.208-2.508 44.939 19.505 92.125 25.356 141.839 21.455-15.448 12.539-32.862 18.669-51.118 23.127 9.549 1.95 46.343-2.229 69.374-7.802 22.751-5.294 44.377-13.653 66.004-23.126-10.673 26.748-44.939 53.497-89.878 65.479 1.967 0 3.933 0 5.899-.279 37.355-6.409 72.464-19.226 104.763-38.73 4.214-2.508 8.988-3.901 14.044-5.016-17.976 23.684-43.254 35.387-70.217 45.418 8.707-1.951 17.695-3.622 26.401-5.573 26.121-6.13 50.276-16.718 72.745-31.764.281-.279.562-.557.843-.557v1.393c-6.741 10.031-14.886 18.39-26.121 23.962 14.886-3.622 28.087-11.145 40.445-19.783 1.124-.836 1.966-1.672 3.09-2.507l.561.557c-.842.836-1.685 1.95-2.527 2.786-11.516 12.817-27.806 22.291-53.365 30.929 1.685-.279 3.37-.279 5.055-.836 19.38-3.901 36.794-11.424 52.523-23.127.842-.557 1.685-.836 2.527-1.393.281-.279.843-.557 1.124-.557 0 .557 0 .835-.281 1.393-4.775 7.523-11.516 13.096-18.818 18.111 12.077-2.786 22.75-8.638 32.3-16.718-6.741 13.096-18.257 20.34-31.457 25.913 10.953.836 29.772-9.195 46.062-23.684-9.83 18.947-27.525 27.863-45.782 36.501 24.155-6.409 46.905-15.603 63.477-35.665-1.405 13.096-16.291 33.157-39.322 43.745 8.707 1.115 28.087-8.08 39.883-18.947l.843-1.671.843.835c-.281.558-.562 1.115-1.124 1.394-1.966 3.622-4.213 7.244-6.46 11.424 5.617-2.787 10.111-6.409 12.92-11.424 3.09-5.016 5.617-10.589 7.864-15.883 2.247-5.572 3.371-11.145 4.494-15.324 1.966 9.473 3.932 20.34 6.179 31.207 1.966 10.309-1.685 18.111-10.392 23.684-9.83 6.408-21.065 9.194-32.3 9.194-16.571 0-32.861-1.671-49.432-1.95-23.874-.279-47.748-.836-71.622 0-26.963.836-53.646 3.622-80.609 4.737-20.503.836-41.007-.557-61.229-6.13-13.201-3.622-24.997-10.031-36.232-18.111 10.392-2.508 20.222-5.016 30.334-7.524v-1.114c-67.128 12.538-132.289 4.179-195.765-20.34 14.324 18.389 33.423 29.814 52.803 39.844h-33.985c-46.624-.557-92.687 3.623-137.345 18.39l-1.685.836c.281.279.281.557.562.557 32.861-8.08 66.004-13.095 99.989-12.538 38.76.836 76.958 5.573 112.909 20.619 5.336 2.229 10.673 4.737 15.728 7.244 0 .558 0 1.115.281 1.672-11.515 3.622-22.75 8.08-34.266 10.588-24.997 5.573-49.994 10.031-74.991 15.325-17.133 3.622-33.985 7.802-50.837 12.817 17.132-2.786 33.985-6.408 51.118-8.08a423.22 423.22 0 0 1 53.084-2.508c17.413.279 34.827 2.229 52.241 4.458-33.704 8.917-66.566 18.947-97.742 34.83 48.59-13.653 97.742-17.554 147.737-11.982-19.942 5.852-39.603 12.539-57.859 22.57 23.031-6.688 46.624-11.703 71.059-11.982-27.244 8.917-52.522 21.455-75.553 38.173 49.433-21.455 100.27-34.272 154.758-27.306-44.658 8.916-88.754 20.34-131.727 36.223 29.21-6.966 58.701-11.424 88.473-13.096 30.053-1.672 59.825-.836 91.002 3.343-4.213.836-7.303 1.672-10.392 2.229-3.09.558-6.18 1.115-9.269 1.951-70.779 15.046-137.906 39.566-198.012 80.247-49.995 31.764-88.193 73.559-111.786 127.614ZM1315.24 739.74h-.562l.562-.558v.558ZM1092.512 629.4c5.617 16.161 21.346 27.028 39.041 27.307 19.66.278 33.704-10.867 42.13-33.994 6.741 5.016 13.481 9.752 20.222 14.768-5.898 16.718-16.852 28.699-32.58 36.501-29.772 15.046-66.004 11.145-89.036-10.31-24.716-22.848-30.053-58.791-12.358-86.376 3.651-5.573 8.707-10.31 13.201-15.604 12.077 7.523 23.031 14.211 34.547 21.455-15.729 12.539-21.065 29.535-15.167 46.253Zm-126.11-36.222c-33.142-11.145-63.757-27.585-93.81-44.303 31.177 14.768 62.634 29.535 93.81 44.303Zm-1.404 555.597c12.639-40.124 36.513-72.724 69.374-99.194-22.469 32.322-40.164 67.151-53.365 104.209-13.201 37.337-20.503 75.51-17.694 115.355-10.393-40.124-10.954-80.526 1.685-120.37Zm12.92 283.092c-7.865-26.749-12.358-53.776-12.639-81.361 1.404 9.474 2.808 18.669 5.055 27.863 3.371 14.489 6.741 29.536 12.078 43.467 8.987 23.406 19.379 46.254 29.21 69.659 5.898 14.21 11.796 28.699 17.975 42.91l2.528 5.015c-.842-.279-1.966-.557-2.247-1.114-20.503-33.994-41.006-67.987-51.96-106.439Zm53.646 108.668c.28-.558.561-.836.561-1.394v1.672c-.281 0-.561-.278-.561-.278Zm118.526 13.095c-12.078-29.535-27.244-57.12-48.029-80.803-7.302-8.638-10.673-16.44-10.111-27.864.843-21.733-5.336-42.074-14.043-61.857-.281-.557-.562-.836-1.685-2.229-1.124 15.604-5.337 29.257-13.763 42.074-2.528-2.508-5.056-5.015-7.022-7.523-27.806-32.322-44.939-69.937-52.241-111.454-7.864-45.417-5.337-90.556 7.864-135.138.281-1.114.562-1.95 1.124-3.622 0 10.588-.281 20.619 0 30.65 1.404 50.99 19.38 96.129 49.713 136.531 20.784 27.863 38.76 57.398 47.467 91.113 2.528 9.474 4.213 19.226 6.179 28.978 11.516-6.408 19.661-16.161 25.278-27.863 8.145-16.997 9.55-35.387 8.145-53.777-1.123-15.046-3.932-29.814-5.617-41.795 8.707 22.848 17.133 48.761 23.874 75.231 6.179 24.799 9.549 49.876 8.426 75.51-1.124 24.52-7.303 47.647-21.627 68.266-1.124 1.95-2.528 3.622-3.932 5.572Zm92.125-48.761c15.447 23.684 27.244 49.319 37.636 75.51v1.115-1.115c-1.124-1.114-2.247-2.229-3.09-3.622-14.886-24.798-30.895-49.04-52.241-69.101-1.124-1.115-2.247-1.951-3.932-3.622 7.302 40.402 9.549 79.689-1.405 118.698-3.932 14.21-9.83 27.585-17.975 40.402-.281-.557-.562-.557-.562-.836-1.685-5.851-5.056-11.981-4.775-17.833.281-5.572 4.494-11.145 6.741-16.996 10.673-30.093 13.763-61.021 10.954-92.786-.281-3.065-.562-6.13-.843-9.473 0-.557-.28-1.115-.842-1.672-3.652 26.192-12.358 50.154-30.334 70.494-1.966-5.015-4.213-10.03-5.898-14.767-.281-1.115 0-3.065.842-4.18 23.312-32.043 30.053-67.986 26.683-106.438-.562-7.523-1.685-14.768-1.404-22.848 13.2 19.504 27.244 39.009 40.445 59.07Zm-16.291-607.422c.562 0 1.405-.279 1.966-.279v.557c-.561 0-1.404.279-1.966.279v-.557Zm11.797 521.046c.281 0 .842 0 1.123-.279-.281.279-.281.557-.562.836 0-.279-.28-.557-.561-.557Zm492.08-524.669c-1.123 45.418-11.515 88.606-35.951 127.615-6.46 10.309-13.762 19.504-24.154 27.863.281-4.736 1.123-8.359 1.123-12.26-.842-57.956-24.155-103.094-75.553-132.63-16.572-9.473-34.547-14.489-53.646-16.439-3.932-.279-8.426.836-12.358 1.95-8.707 3.065-17.414 6.13-26.964 6.13-7.583 0-14.324-1.671-20.784-5.294-44.096-24.241-91.001-41.795-140.434-51.826-25.84-5.294-51.961-8.916-78.081-8.916-26.121 0-52.242.836-78.362 1.951-11.516.557-22.751 2.507-34.266 3.9v1.394c11.234 0 22.469-.279 33.704 0 60.106 2.229 119.088 10.588 176.666 27.584 42.692 12.539 81.452 33.158 117.964 58.235 16.01 10.867 32.3 21.733 50.557 28.699 14.043 5.294 28.648 7.802 43.534 9.195-1.685.279-3.651.557-5.336.836-26.121.836-50.837-5.851-74.43-16.439-17.695-7.802-34.828-17.276-52.523-25.077-39.883-17.276-82.013-26.192-125.829-27.585-27.525-.836-54.769 0-82.013 3.901-1.123.278-2.247 0-3.651-.558 40.445-11.702 82.013-16.16 124.143-14.489-15.166-3.065-30.333-6.687-45.781-9.473-59.263-11.146-118.807-12.26-178.913-10.867-28.929.557-57.578-1.393-85.103-11.703-17.133-6.687-31.457-16.718-41.849-31.764-4.494-6.408-7.584-13.374-7.865-21.455 0-1.393 1.405-3.622 2.528-3.901 2.528-.557 4.775-3.9 7.864-.278 19.661 25.077 46.905 36.501 77.52 40.959 16.852 2.508 33.985 2.786 50.837 4.18 0-.836.281-1.394.281-2.23-1.404-.278-3.09-.557-4.494-.835-24.155-1.672-47.747-5.016-70.217-15.047-16.852-7.244-31.738-16.996-43.254-31.485-.28-.279-.561-.836-.842-1.394 7.583-1.393 14.886-2.786 22.469-3.9 1.405-.279 3.09.557 4.213 1.671 17.976 16.718 40.445 23.406 64.319 26.471 36.794 4.458 73.587 2.786 110.662 1.114 40.726-1.672 81.452-2.786 121.897 1.115 16.852 1.672 33.423 4.458 50.275 6.966 1.966.278 4.213.278 6.179.557 1.124.279 1.966.557 3.09.836 0-.279 0-.557.281-.836-.843 0-1.966-.279-2.809-.279-10.673-3.065-21.065-6.13-31.738-9.473-2.809-.836-5.898-1.393-8.426-2.229 5.617-1.951 11.515-3.344 17.414-5.573 15.728-6.409 23.593-17.275 20.503-33.715-7.022-37.337 3.37-71.33 18.256-104.766 12.078-26.749 27.245-51.548 45.782-74.396.281-.278.281-.557.562-.836 4.494-7.523 10.111-8.916 18.818-6.13 21.065 6.409 42.13 12.539 62.072 22.013 3.089 1.393 6.179 3.065 9.268 4.736 8.426 4.18 17.133 7.523 24.998 12.26 15.166 9.195 30.052 18.947 45.781 28.978-4.494 4.18-8.145 7.245-11.516 10.588-14.605 13.932-29.21 27.864-43.534 42.074-20.503 20.619-44.377 34.272-73.026 40.123-48.59 9.753-66.846 61.021-57.859 93.622 1.405 4.736 4.494 9.195 6.741 13.653-1.123-6.688-2.808-13.653-2.808-20.341-.562-21.176 8.987-37.615 25.559-50.432 11.796-8.917 25.839-13.375 39.602-18.669 24.435-9.195 45.22-22.848 63.476-41.516 15.167-15.604 30.896-30.093 46.905-44.582 5.056-4.737 11.797-8.08 17.414-11.981 2.809-1.951 5.056-1.672 7.583.557 26.964 24.241 47.748 52.941 62.915 85.819 8.707 18.669 16.009 38.173 20.503 58.514.562 2.786.562 5.851 1.124 8.916 1.123 3.065 2.247 6.13 3.089 9.473 3.932 22.57 6.46 44.861 5.898 67.151Z" style="fill:#fff;fill-rule:nonzero"/><clipPath id="a"><path d="M1749.46 829.738c-9.549-51.826-29.772-98.915-62.072-140.71-35.951-46.532-82.013-79.411-135.94-102.259-2.528-1.114-3.651-2.786-4.494-5.294-4.213-12.817-7.583-25.913-13.2-38.173-15.167-33.714-38.76-61.578-64.6-87.769-58.982-59.35-127.233-105.603-201.382-144.612-87.631-45.974-180.318-76.067-277.498-93.064-30.615-5.294-61.51-9.195-92.406-12.259-32.019-3.344-64.038-4.737-96.057-7.245 0 .557-.28.836-.28 1.393 30.895 6.966 61.51 15.604 89.596 28.142-21.345-.836-43.534-2.507-66.003-2.507-22.189-.279-44.378.278-66.566 1.393-22.189 1.114-44.377 3.343-66.566 5.851a1330.83 1330.83 0 0 0-65.723 9.195c-21.627 3.622-43.254 8.08-64.881 11.981 41.569 3.622 82.576 10.031 123.021 21.455-114.875 27.585-224.133 68.544-324.684 130.958 37.075-8.359 74.43-14.21 112.347-16.161 37.918-1.671 75.554-1.393 114.314 5.573-51.961 18.947-99.708 44.303-144.647 74.117-45.22 30.092-86.227 65.479-123.582 104.488-37.356 39.009-70.498 81.361-96.057 129.007 57.016-50.432 121.335-86.376 197.45-99.472-62.914 40.123-114.594 91.392-158.409 151.02-43.816 59.349-78.363 123.435-96.338 195.322a6.54 6.54 0 0 0 1.966-1.95c13.762-27.027 30.334-52.105 49.433-75.51 28.929-35.108 61.229-66.593 100.27-90.835 14.324-8.916 29.491-16.439 44.096-24.519l1.685-.836.843.836-1.686.835c-22.469 22.291-41.849 46.532-57.578 73.839-34.827 60.742-54.769 126.221-60.948 195.879-3.932 43.467-1.404 86.656 7.022 129.287 10.392 51.547 27.806 101.144 51.68 148.233 11.515 22.848 24.716 44.86 37.074 67.43.562-.279.843-.279 1.404-.557-16.571-59.071-13.762-117.863 3.09-176.097 8.707 94.178 38.198 181.112 90.439 260.244 52.242 78.854 117.684 144.054 199.698 192.536-29.491-43.745-51.118-90.834-60.387-142.939-9.269-52.105-9.83-103.652 5.056-154.921.561 1.115.842 2.508 1.123 3.623 3.651 18.111 6.46 36.501 11.516 54.055 18.256 66.872 52.803 124.828 99.989 175.261 15.728 16.996 32.3 33.157 51.118 47.089.281.836.842 1.393 1.123 2.229.281-.279.843-.557 1.124-.836-.562-.557-.843-1.393-1.405-1.95-24.997-56.842-36.793-116.191-30.053-178.326.843-7.524 2.528-14.768 3.933-22.013 8.987 21.455 18.818 41.517 30.895 60.743 34.266 54.333 80.609 96.129 135.098 129.843 19.099 11.703 38.759 23.127 56.173 37.616 20.223 17.275 38.198 36.222 50.837 59.628.562.836 1.124 1.95 2.247 3.622-2.808-76.624-20.784-148.791-48.871-218.728 57.859 55.727 110.1 115.633 145.209 189.193 0-1.672.281-2.787.281-3.622-.562-15.325-.843-30.372-2.247-45.697-3.371-37.615-11.797-74.116-24.436-109.781-4.213-11.982-9.268-23.963-13.762-35.944-.281-.558-.281-.836-.562-1.393.281.278.843.557 1.124.835 1.123 1.115 2.527 2.23 3.651 3.623 26.121 28.142 50.556 57.956 71.621 90.277 25.278 38.73 46.905 79.132 59.544 123.435.281.557.562.836 1.124 1.951 45.5-34.551 70.217-78.018 64.038-136.81 32.58 35.944 51.679 78.018 62.071 124.828.281-1.114.562-1.671.562-2.229 7.022-33.993 6.179-67.986.281-101.98-6.179-36.501-17.414-71.609-33.142-105.045-11.516-24.52-25.278-47.925-37.918-71.888-.561-1.393-.842-2.786-1.404-4.458 9.55 10.588 19.38 20.619 28.368 31.486 44.377 52.383 76.115 111.732 93.81 177.769 4.494 17.275 7.864 34.829 11.234 50.432 4.213-39.844 2.809-81.082-4.774-122.32-8.988-47.647-23.593-93.9-43.254-138.203-7.303-16.439-15.167-32.879-22.75-49.875.842.557 1.404 1.114 1.966 1.672 44.658 40.402 79.485 87.769 107.01 140.989 6.46 12.259 12.078 24.519 17.976 37.058l.281-.279c-5.337-18.668-10.111-37.615-16.29-56.284-13.201-40.68-33.424-78.296-53.646-115.912-21.908-40.68-42.973-81.918-58.14-125.664-14.886-42.91-25.559-86.655-21.346-132.63 1.966-20.34 8.145-39.287 20.223-56.005.561-.836.842-1.951 1.123-3.065l1.404 1.393c-.561 32.321 11.235 68.823 17.695 78.575.562-5.016.843-10.031 1.404-14.768 4.213-30.928 12.359-60.464 27.806-87.77 20.785-36.222 49.714-62.414 91.282-73.281 3.652-.835 7.022-.835 10.393.558 16.009 6.408 32.299 12.817 48.309 19.226 34.266 13.374 68.813 25.355 105.045 32.878 8.987 1.951 17.975 3.344 27.525 5.294-3.933 73.281-28.368 138.76-72.183 197.274 12.077-6.688 24.435-13.096 35.951-20.619 34.827-22.848 63.195-52.105 87.63-85.263 39.884-54.055 64.038-114.518 70.498-181.39 3.371-33.715 1.966-66.873-3.932-99.752ZM418.99 1181.375v-11.981c0-3.901.281-7.802.562-11.703 3.932-43.188 13.482-84.983 30.334-125.107 13.762-33.436 32.861-62.971 60.386-87.212 1.124-1.115 2.528-2.229 3.652-3.344-51.68 69.659-82.295 168.017-94.934 239.347Zm41.85 98.079c3.089 52.662 14.324 103.931 32.019 153.528 17.694 49.318 42.13 95.293 72.183 138.76-82.014-91.114-114.033-185.849-104.202-292.288Zm406.977 175.819c-14.043-48.483-16.29-97.244-2.527-146.283 1.685-6.13 4.213-11.703 6.179-17.554.842-1.951 1.685-3.901 2.808-5.852-5.898 49.04-3.37 97.801 5.337 146.283 8.707 48.204 23.874 94.457 43.254 139.317-23.874-36.222-42.973-74.395-55.051-115.911Zm-21.346-309.842c-12.077 27.585-19.099 56.284-20.503 86.377 0 1.393-.281 2.786-.562 5.015-7.302-42.352-2.527-103.652 23.593-155.756 24.436-48.761 61.791-86.098 107.011-116.191-5.617 2.229-11.235 4.458-16.852 6.966-63.757 28.142-117.684 68.265-158.129 125.385-23.874 33.994-38.76 71.609-45.5 112.29-5.899 35.944-3.933 71.609 1.685 107.274 7.864 48.761 23.031 95.293 40.445 141.547.842 1.95 1.404 3.9 1.685 6.129-59.825-102.537-99.146-210.926-95.495-331.853-.562 1.115-1.124 2.229-1.685 3.065-.562 1.114-.843 1.95-1.405 3.065-12.358 29.535-19.941 60.464-23.312 92.228-6.46 57.12-.281 113.404 13.763 168.852 1.685 6.409 3.089 13.096 4.775 19.505-.281 0-.843.278-1.124.278-4.494-11.702-9.269-23.684-13.482-35.386-15.728-43.189-26.401-87.491-33.142-132.909-6.46-42.631-7.583-85.541-3.651-128.45 7.864-86.098 41.849-160.494 105.044-220.679 11.797-11.424 25.84-20.619 39.041-30.649.843-.558 1.685-1.115 3.932-2.508-17.414 3.343-32.581 8.08-47.467 14.768-43.534 19.783-77.519 49.875-104.763 88.884-28.93 41.238-49.152 86.655-65.723 134.023-12.078 34.829-21.627 70.216-29.492 106.16v-5.294c1.124-29.536 1.124-59.071 3.09-88.606 4.494-62.136 14.886-123.156 37.917-181.67 16.852-42.909 41.007-81.361 75.554-112.289 20.503-18.39 43.253-32.879 68.531-44.025-6.459 1.115-12.919 1.672-19.099 3.065-73.587 16.997-139.872 49.597-199.416 95.293-46.062 35.387-86.226 76.346-121.616 122.321-.281.278-.842.557-1.123.836.281-.558.281-.836.562-1.393 4.774-16.718 9.268-33.437 14.324-50.155 16.852-54.055 39.04-105.602 67.408-154.642 27.525-47.089 61.229-89.163 104.202-123.435 46.063-36.779 98.585-61.021 156.725-72.723 35.67-6.966 71.34-9.195 107.572-7.245 7.303.279 14.605 1.115 21.908 1.672-2.247-1.114-4.775-2.229-7.303-3.065-32.3-10.031-65.161-16.718-98.865-20.34-80.89-8.638-156.163 8.637-226.942 47.368-14.605 7.801-28.087 17.275-42.411 25.913-.562.557-1.404 1.114-1.966 1.671l-.562-.557c.562-.557 1.405-1.114 1.966-1.672 17.695-13.095 34.828-27.027 53.084-39.566 36.794-25.355 76.958-44.024 119.65-57.677.843-.279 1.685-.557 2.809-1.115-13.201-3.622-51.118-3.065-73.587 0-24.436 3.065-48.029 8.917-71.622 16.44 12.358-11.981 57.859-32.6 92.968-42.91-5.899-1.114-11.797-2.508-17.695-3.622-24.717-3.901-49.714-5.016-74.711-2.786-11.235 1.114-22.189 3.343-33.143 5.015.562-.836 1.124-2.229 1.967-2.786 73.025-50.712 153.073-85.541 240.423-103.095 43.253-8.638 87.069-11.145 131.165-9.474 11.235.558 22.75 1.951 33.985 2.787.562 0 1.404-.279 2.247-.558-32.3-11.702-65.161-22.29-98.585-29.256-30.614-6.409-61.51-11.703-92.124-16.718-34.266-5.294-68.532-6.966-103.079-6.687-.281 0-.562-.279-1.966-.558 91.844-30.371 184.53-41.516 280.025-23.684-12.92-6.966-80.047-22.569-124.705-25.355 92.686-14.211 180.317 3.343 264.858 42.352-8.145-8.359-72.744-39.009-115.436-54.891-33.985-12.538-82.575-25.913-123.582-34.272 9.549-.836 19.099-2.229 28.648-2.508 120.212-5.851 232.559 21.177 336.199 81.919 3.371 1.95 6.741 3.901 10.392 5.851.281-.278.843-.557 1.124-.836-21.065-15.882-43.815-29.256-66.847-41.795-37.074-20.062-75.553-37.058-115.436-50.154-.843-.279-1.966-.836-2.809-1.951 11.516.836 23.312 1.115 34.828 2.508 152.792 21.176 289.013 82.476 413.999 170.803 32.862 23.405 63.195 49.876 88.473 81.64 16.853 21.176 30.053 44.303 36.232 71.052.281.836.281 1.671.281 2.229 0 .278-.281.557-.281.557-13.481-3.622-26.963-7.244-40.725-10.867-2.809-.836-4.494-1.672-5.337-4.737-2.528-9.752-7.583-18.111-14.043-25.634-.562 8.638-1.405 17.554-1.966 26.192-.562 0-.843.278-1.405.278-3.651-16.718-12.358-30.371-26.682-40.959 4.213 23.684.562 45.975-7.303 69.101-2.247-13.374-5.617-25.355-11.796-36.222-.281-.557-.281-1.115-.562-1.672h-.562c0 .836.281 1.393.281 2.229 2.528 23.127-2.528 44.86-10.392 66.315-1.966 5.294-4.213 10.31-6.46 15.325-.281-12.26-2.247-23.962-6.179-35.386-3.932-11.146-8.707-21.734-16.29-30.929 11.234 23.405 13.481 51.548 6.179 81.083-4.775-19.226-14.044-34.551-27.244-47.647l-.562-.557c-.281-.557-.562-1.393-.843-1.95-.281.278-.842.557-1.123 1.114.281.557.842.836 1.123 1.393.281.279.562.836.843 1.115 10.673 19.504 14.043 40.68 12.077 63.807-.842-1.672-1.123-2.508-1.404-3.344-10.111-28.42-30.615-46.531-58.702-55.726-20.222-6.688-41.006-11.424-61.51-16.718-30.053-7.524-58.42-18.948-86.226-32.043-68.532-32.879-135.379-69.659-201.663-106.717-7.303-3.901-14.606-7.802-21.908-11.982 32.861 26.749 65.442 53.498 98.023 80.247-.281.557-.562.836-.843 1.393-7.583-1.393-14.886-2.786-22.469-4.179-19.661-3.344-39.884-3.901-59.544-1.951-41.569 4.18-82.856 5.016-124.144 0-32.3-3.901-64.319-10.031-96.338-15.325-10.673-1.671-21.065-4.179-31.457-5.572 27.806 9.473 55.612 18.39 83.137 28.142 27.244 10.031 55.05 19.226 81.452 34.829-12.078 0-23.031.557-33.704 0-61.791-4.179-119.088-24.798-176.666-45.696-1.405-.557-2.528-.836-4.213-.279 4.213 2.508 8.145 4.737 12.358 7.245 42.411 24.798 88.192 40.68 137.063 47.646 33.705 4.737 67.69 6.13 101.955 5.852 3.371 0 7.303.557 10.393 1.95 13.762 6.687 27.525 13.932 41.006 21.176 2.528 1.393 4.775 3.344 7.022 5.016-.281.557-.281 1.114-.562 1.672-26.963-5.295-53.646-10.867-80.609-16.161 46.905 14.489 92.125 32.321 129.761 64.922-18.256-1.115-35.108-7.524-52.241-13.375-.281.557-.562 1.115-.562 1.672 34.828 15.882 69.936 32.043 104.764 47.925-.281.557-.281 1.115-.562 1.393-18.256 3.344-36.232.557-54.208-2.508 44.939 19.505 92.125 25.356 141.839 21.455-15.448 12.539-32.862 18.669-51.118 23.127 9.549 1.95 46.343-2.229 69.374-7.802 22.751-5.294 44.377-13.653 66.004-23.126-10.673 26.748-44.939 53.497-89.878 65.479 1.967 0 3.933 0 5.899-.279 37.355-6.409 72.464-19.226 104.763-38.73 4.214-2.508 8.988-3.901 14.044-5.016-17.976 23.684-43.254 35.387-70.217 45.418 8.707-1.951 17.695-3.622 26.401-5.573 26.121-6.13 50.276-16.718 72.745-31.764.281-.279.562-.557.843-.557v1.393c-6.741 10.031-14.886 18.39-26.121 23.962 14.886-3.622 28.087-11.145 40.445-19.783 1.124-.836 1.966-1.672 3.09-2.507l.561.557c-.842.836-1.685 1.95-2.527 2.786-11.516 12.817-27.806 22.291-53.365 30.929 1.685-.279 3.37-.279 5.055-.836 19.38-3.901 36.794-11.424 52.523-23.127.842-.557 1.685-.836 2.527-1.393.281-.279.843-.557 1.124-.557 0 .557 0 .835-.281 1.393-4.775 7.523-11.516 13.096-18.818 18.111 12.077-2.786 22.75-8.638 32.3-16.718-6.741 13.096-18.257 20.34-31.457 25.913 10.953.836 29.772-9.195 46.062-23.684-9.83 18.947-27.525 27.863-45.782 36.501 24.155-6.409 46.905-15.603 63.477-35.665-1.405 13.096-16.291 33.157-39.322 43.745 8.707 1.115 28.087-8.08 39.883-18.947l.843-1.671.843.835c-.281.558-.562 1.115-1.124 1.394-1.966 3.622-4.213 7.244-6.46 11.424 5.617-2.787 10.111-6.409 12.92-11.424 3.09-5.016 5.617-10.589 7.864-15.883 2.247-5.572 3.371-11.145 4.494-15.324 1.966 9.473 3.932 20.34 6.179 31.207 1.966 10.309-1.685 18.111-10.392 23.684-9.83 6.408-21.065 9.194-32.3 9.194-16.571 0-32.861-1.671-49.432-1.95-23.874-.279-47.748-.836-71.622 0-26.963.836-53.646 3.622-80.609 4.737-20.503.836-41.007-.557-61.229-6.13-13.201-3.622-24.997-10.031-36.232-18.111 10.392-2.508 20.222-5.016 30.334-7.524v-1.114c-67.128 12.538-132.289 4.179-195.765-20.34 14.324 18.389 33.423 29.814 52.803 39.844h-33.985c-46.624-.557-92.687 3.623-137.345 18.39l-1.685.836c.281.279.281.557.562.557 32.861-8.08 66.004-13.095 99.989-12.538 38.76.836 76.958 5.573 112.909 20.619 5.336 2.229 10.673 4.737 15.728 7.244 0 .558 0 1.115.281 1.672-11.515 3.622-22.75 8.08-34.266 10.588-24.997 5.573-49.994 10.031-74.991 15.325-17.133 3.622-33.985 7.802-50.837 12.817 17.132-2.786 33.985-6.408 51.118-8.08a423.22 423.22 0 0 1 53.084-2.508c17.413.279 34.827 2.229 52.241 4.458-33.704 8.917-66.566 18.947-97.742 34.83 48.59-13.653 97.742-17.554 147.737-11.982-19.942 5.852-39.603 12.539-57.859 22.57 23.031-6.688 46.624-11.703 71.059-11.982-27.244 8.917-52.522 21.455-75.553 38.173 49.433-21.455 100.27-34.272 154.758-27.306-44.658 8.916-88.754 20.34-131.727 36.223 29.21-6.966 58.701-11.424 88.473-13.096 30.053-1.672 59.825-.836 91.002 3.343-4.213.836-7.303 1.672-10.392 2.229-3.09.558-6.18 1.115-9.269 1.951-70.779 15.046-137.906 39.566-198.012 80.247-49.995 31.764-88.193 73.559-111.786 127.614ZM1315.24 739.74h-.562l.562-.558v.558ZM1092.512 629.4c5.617 16.161 21.346 27.028 39.041 27.307 19.66.278 33.704-10.867 42.13-33.994 6.741 5.016 13.481 9.752 20.222 14.768-5.898 16.718-16.852 28.699-32.58 36.501-29.772 15.046-66.004 11.145-89.036-10.31-24.716-22.848-30.053-58.791-12.358-86.376 3.651-5.573 8.707-10.31 13.201-15.604 12.077 7.523 23.031 14.211 34.547 21.455-15.729 12.539-21.065 29.535-15.167 46.253Zm-126.11-36.222c-33.142-11.145-63.757-27.585-93.81-44.303 31.177 14.768 62.634 29.535 93.81 44.303Zm-1.404 555.597c12.639-40.124 36.513-72.724 69.374-99.194-22.469 32.322-40.164 67.151-53.365 104.209-13.201 37.337-20.503 75.51-17.694 115.355-10.393-40.124-10.954-80.526 1.685-120.37Zm12.92 283.092c-7.865-26.749-12.358-53.776-12.639-81.361 1.404 9.474 2.808 18.669 5.055 27.863 3.371 14.489 6.741 29.536 12.078 43.467 8.987 23.406 19.379 46.254 29.21 69.659 5.898 14.21 11.796 28.699 17.975 42.91l2.528 5.015c-.842-.279-1.966-.557-2.247-1.114-20.503-33.994-41.006-67.987-51.96-106.439Zm53.646 108.668c.28-.558.561-.836.561-1.394v1.672c-.281 0-.561-.278-.561-.278Zm118.526 13.095c-12.078-29.535-27.244-57.12-48.029-80.803-7.302-8.638-10.673-16.44-10.111-27.864.843-21.733-5.336-42.074-14.043-61.857-.281-.557-.562-.836-1.685-2.229-1.124 15.604-5.337 29.257-13.763 42.074-2.528-2.508-5.056-5.015-7.022-7.523-27.806-32.322-44.939-69.937-52.241-111.454-7.864-45.417-5.337-90.556 7.864-135.138.281-1.114.562-1.95 1.124-3.622 0 10.588-.281 20.619 0 30.65 1.404 50.99 19.38 96.129 49.713 136.531 20.784 27.863 38.76 57.398 47.467 91.113 2.528 9.474 4.213 19.226 6.179 28.978 11.516-6.408 19.661-16.161 25.278-27.863 8.145-16.997 9.55-35.387 8.145-53.777-1.123-15.046-3.932-29.814-5.617-41.795 8.707 22.848 17.133 48.761 23.874 75.231 6.179 24.799 9.549 49.876 8.426 75.51-1.124 24.52-7.303 47.647-21.627 68.266-1.124 1.95-2.528 3.622-3.932 5.572Zm92.125-48.761c15.447 23.684 27.244 49.319 37.636 75.51v1.115-1.115c-1.124-1.114-2.247-2.229-3.09-3.622-14.886-24.798-30.895-49.04-52.241-69.101-1.124-1.115-2.247-1.951-3.932-3.622 7.302 40.402 9.549 79.689-1.405 118.698-3.932 14.21-9.83 27.585-17.975 40.402-.281-.557-.562-.557-.562-.836-1.685-5.851-5.056-11.981-4.775-17.833.281-5.572 4.494-11.145 6.741-16.996 10.673-30.093 13.763-61.021 10.954-92.786-.281-3.065-.562-6.13-.843-9.473 0-.557-.28-1.115-.842-1.672-3.652 26.192-12.358 50.154-30.334 70.494-1.966-5.015-4.213-10.03-5.898-14.767-.281-1.115 0-3.065.842-4.18 23.312-32.043 30.053-67.986 26.683-106.438-.562-7.523-1.685-14.768-1.404-22.848 13.2 19.504 27.244 39.009 40.445 59.07Zm-16.291-607.422c.562 0 1.405-.279 1.966-.279v.557c-.561 0-1.404.279-1.966.279v-.557Zm11.797 521.046c.281 0 .842 0 1.123-.279-.281.279-.281.557-.562.836 0-.279-.28-.557-.561-.557Zm492.08-524.669c-1.123 45.418-11.515 88.606-35.951 127.615-6.46 10.309-13.762 19.504-24.154 27.863.281-4.736 1.123-8.359 1.123-12.26-.842-57.956-24.155-103.094-75.553-132.63-16.572-9.473-34.547-14.489-53.646-16.439-3.932-.279-8.426.836-12.358 1.95-8.707 3.065-17.414 6.13-26.964 6.13-7.583 0-14.324-1.671-20.784-5.294-44.096-24.241-91.001-41.795-140.434-51.826-25.84-5.294-51.961-8.916-78.081-8.916-26.121 0-52.242.836-78.362 1.951-11.516.557-22.751 2.507-34.266 3.9v1.394c11.234 0 22.469-.279 33.704 0 60.106 2.229 119.088 10.588 176.666 27.584 42.692 12.539 81.452 33.158 117.964 58.235 16.01 10.867 32.3 21.733 50.557 28.699 14.043 5.294 28.648 7.802 43.534 9.195-1.685.279-3.651.557-5.336.836-26.121.836-50.837-5.851-74.43-16.439-17.695-7.802-34.828-17.276-52.523-25.077-39.883-17.276-82.013-26.192-125.829-27.585-27.525-.836-54.769 0-82.013 3.901-1.123.278-2.247 0-3.651-.558 40.445-11.702 82.013-16.16 124.143-14.489-15.166-3.065-30.333-6.687-45.781-9.473-59.263-11.146-118.807-12.26-178.913-10.867-28.929.557-57.578-1.393-85.103-11.703-17.133-6.687-31.457-16.718-41.849-31.764-4.494-6.408-7.584-13.374-7.865-21.455 0-1.393 1.405-3.622 2.528-3.901 2.528-.557 4.775-3.9 7.864-.278 19.661 25.077 46.905 36.501 77.52 40.959 16.852 2.508 33.985 2.786 50.837 4.18 0-.836.281-1.394.281-2.23-1.404-.278-3.09-.557-4.494-.835-24.155-1.672-47.747-5.016-70.217-15.047-16.852-7.244-31.738-16.996-43.254-31.485-.28-.279-.561-.836-.842-1.394 7.583-1.393 14.886-2.786 22.469-3.9 1.405-.279 3.09.557 4.213 1.671 17.976 16.718 40.445 23.406 64.319 26.471 36.794 4.458 73.587 2.786 110.662 1.114 40.726-1.672 81.452-2.786 121.897 1.115 16.852 1.672 33.423 4.458 50.275 6.966 1.966.278 4.213.278 6.179.557 1.124.279 1.966.557 3.09.836 0-.279 0-.557.281-.836-.843 0-1.966-.279-2.809-.279-10.673-3.065-21.065-6.13-31.738-9.473-2.809-.836-5.898-1.393-8.426-2.229 5.617-1.951 11.515-3.344 17.414-5.573 15.728-6.409 23.593-17.275 20.503-33.715-7.022-37.337 3.37-71.33 18.256-104.766 12.078-26.749 27.245-51.548 45.782-74.396.281-.278.281-.557.562-.836 4.494-7.523 10.111-8.916 18.818-6.13 21.065 6.409 42.13 12.539 62.072 22.013 3.089 1.393 6.179 3.065 9.268 4.736 8.426 4.18 17.133 7.523 24.998 12.26 15.166 9.195 30.052 18.947 45.781 28.978-4.494 4.18-8.145 7.245-11.516 10.588-14.605 13.932-29.21 27.864-43.534 42.074-20.503 20.619-44.377 34.272-73.026 40.123-48.59 9.753-66.846 61.021-57.859 93.622 1.405 4.736 4.494 9.195 6.741 13.653-1.123-6.688-2.808-13.653-2.808-20.341-.562-21.176 8.987-37.615 25.559-50.432 11.796-8.917 25.839-13.375 39.602-18.669 24.435-9.195 45.22-22.848 63.476-41.516 15.167-15.604 30.896-30.093 46.905-44.582 5.056-4.737 11.797-8.08 17.414-11.981 2.809-1.951 5.056-1.672 7.583.557 26.964 24.241 47.748 52.941 62.915 85.819 8.707 18.669 16.009 38.173 20.503 58.514.562 2.786.562 5.851 1.124 8.916 1.123 3.065 2.247 6.13 3.089 9.473 3.932 22.57 6.46 44.861 5.898 67.151Z" clip-rule="nonzero"/></clipPath><g clip-path="url(#a)"><ellipse cx="902.041" cy="960" rx="1550.74" ry="1574.04" style="fill:url(#b)"/><clipPath id="c"><ellipse cx="902.041" cy="960" rx="1550.74" ry="1574.04"/></clipPath><g clip-path="url(#c)"><path d="M-892.777-861.79h3589.64v3643.58h-3589.64z" style="fill:url(#d)"/></g></g><path d="M.255 0v-.648h-.2V-.73h.49v.082h-.2V0h-.09Z" style="fill:#0e7193;fill-rule:nonzero" transform="rotate(82.316 187.077 929.202) scale(4.16667)"/><path d="M.093 0v-.73h.09v.312h.234V-.73h.09V0h-.09v-.336H.183V0h-.09Z" style="fill:#0e7193;fill-rule:nonzero" transform="scale(4.16667) rotate(79.374 40.037 231.292)"/><path d="M.1 0v-.73h.42v.082H.189v.226h.296v.08H.189v.26H.52V0H.1Z" style="fill:#0e7193;fill-rule:nonzero" transform="rotate(76.376 144.883 1001.126) scale(4.16667)"/><path d="M.095 0v-.73h.43v.082H.183v.242h.316v.082H.185V0h-.09Z" style="fill:#0e7193;fill-rule:nonzero" transform="scale(4.16667) rotate(70.475 23.294 259.835)"/><path d="M.093 0v-.73h.225c.043 0 .081.009.114.026a.193.193 0 0 1 .076.074.216.216 0 0 1 .027.11.214.214 0 0 1-.038.127.199.199 0 0 1-.101.074L.545 0H.446L.303-.31H.182V0H.093Zm.089-.391h.136a.122.122 0 0 0 .09-.035.13.13 0 0 0 .034-.094.128.128 0 0 0-.034-.094.122.122 0 0 0-.09-.035H.182v.258Z" style="fill:#0e7193;fill-rule:nonzero" transform="scale(4.16667) rotate(67.459 16.767 270.963)"/><path d="M.1 0v-.73h.42v.082H.189v.226h.296v.08H.189v.26H.52V0H.1Z" style="fill:#0e7193;fill-rule:nonzero" transform="scale(4.16667) rotate(64.534 9.918 282.639)"/><path d="M.1 0v-.73h.42v.082H.189v.226h.296v.08H.189v.26H.52V0H.1Z" style="fill:#0e7193;fill-rule:nonzero" transform="rotate(61.559 9.84 1231.326) scale(4.16667)"/><path d="M.092 0v-.73h.189c.047 0 .088.009.123.027a.187.187 0 0 1 .079.076.227.227 0 0 1 .029.116v.291a.23.23 0 0 1-.029.117.187.187 0 0 1-.079.076A.265.265 0 0 1 .281 0H.092Zm.09-.08h.099a.14.14 0 0 0 .104-.037.142.142 0 0 0 .037-.103v-.291a.142.142 0 0 0-.037-.102.142.142 0 0 0-.104-.037H.182v.57Z" style="fill:#0e7193;fill-rule:nonzero" transform="scale(4.16667) rotate(58.609 -5.813 309.453)"/><path d="M.3.01a.21.21 0 0 1-.155-.057C.107-.085.088-.139.088-.21v-.31c0-.071.019-.125.057-.163A.21.21 0 0 1 .3-.74a.21.21 0 0 1 .155.057c.038.038.057.092.057.162v.311c0 .071-.019.125-.057.163A.21.21 0 0 1 .3.01Zm0-.081c.039 0 .069-.011.09-.033A.137.137 0 0 0 .422-.2v-.33A.133.133 0 0 0 .39-.625C.369-.648.339-.659.3-.659s-.069.011-.09.034a.133.133 0 0 0-.032.095v.33c0 .041.011.073.032.096.021.022.051.033.09.033Z" style="fill:#0e7193;fill-rule:nonzero" transform="scale(4.16666) rotate(55.641 -14.827 324.82)"/><path d="M.072 0v-.73h.133l.093.316.097-.316h.133V0H.441v-.345l.002-.112.004-.129.007-.117-.118.377H.258L.145-.694c.005.049.009.103.011.162.002.059.003.121.003.187V0H.072Z" style="fill:#0e7193;fill-rule:nonzero" transform="scale(4.16666) rotate(52.656 -24.832 341.877)"/><path d="M.3.01a.21.21 0 0 1-.155-.057C.107-.085.088-.139.088-.21v-.31c0-.071.019-.125.057-.163A.21.21 0 0 1 .3-.74a.21.21 0 0 1 .155.057c.038.038.057.092.057.162v.311c0 .071-.019.125-.057.163A.21.21 0 0 1 .3.01Zm0-.081c.039 0 .069-.011.09-.033A.137.137 0 0 0 .422-.2v-.33A.133.133 0 0 0 .39-.625C.369-.648.339-.659.3-.659s-.069.011-.09.034a.133.133 0 0 0-.032.095v.33c0 .041.011.073.032.096.021.022.051.033.09.033Z" style="fill:#0e7193;fill-rule:nonzero" transform="scale(4.16666) rotate(46.714 -48.27 381.834)"/><path d="M.095 0v-.73h.43v.082H.183v.242h.316v.082H.185V0h-.09Z" style="fill:#0e7193;fill-rule:nonzero" transform="scale(4.16666) rotate(43.718 -62.35 405.834)"/><path d="M.304.01a.246.246 0 0 1-.169-.056A.195.195 0 0 1 .072-.2h.09c0 .041.013.073.039.096.026.023.06.034.103.034a.137.137 0 0 0 .099-.036A.124.124 0 0 0 .44-.2a.119.119 0 0 0-.091-.121L.238-.352A.196.196 0 0 1 .09-.545c0-.039.009-.073.026-.102a.187.187 0 0 1 .073-.069.232.232 0 0 1 .108-.024c.041 0 .078.008.109.024a.185.185 0 0 1 .102.169h-.09a.103.103 0 0 0-.034-.081.124.124 0 0 0-.087-.032.12.12 0 0 0-.086.032.106.106 0 0 0-.033.081.108.108 0 0 0 .082.108l.114.032a.2.2 0 0 1 .114.076c.027.037.04.08.04.131 0 .064-.02.115-.061.153A.23.23 0 0 1 .304.01Z" style="fill:#0e7193;fill-rule:nonzero" transform="rotate(37.929 -398.132 1926.869) scale(4.16667)"/><path d="M.1 0v-.73h.42v.082H.189v.226h.296v.08H.189v.26H.52V0H.1Z" style="fill:#0e7193;fill-rule:nonzero" transform="rotate(34.938 -486.772 2077.984) scale(4.16667)"/><path d="M.13 0v-.73h.09v.648h.33V0H.13Z" style="fill:#0e7193;fill-rule:nonzero" transform="scale(4.16667) rotate(31.831 -142.995 543.301)"/><path d="M.095 0v-.73h.43v.082H.183v.242h.316v.082H.185V0h-.09Z" style="fill:#0e7193;fill-rule:nonzero" transform="scale(4.16667) rotate(29.008 -171.536 591.975)"/><path d="M.093 0v-.73h.09v.312h.234V-.73h.09V0h-.09v-.336H.183V0h-.09Z" style="fill:#0e7193;fill-rule:nonzero" transform="rotate(23.088 -1056.152 3048.622) scale(4.16667)"/><path d="M.3.01a.21.21 0 0 1-.155-.057C.107-.085.088-.139.088-.21v-.31c0-.071.019-.125.057-.163A.21.21 0 0 1 .3-.74a.21.21 0 0 1 .155.057c.038.038.057.092.057.162v.311c0 .071-.019.125-.057.163A.21.21 0 0 1 .3.01Zm0-.081c.039 0 .069-.011.09-.033A.137.137 0 0 0 .422-.2v-.33A.133.133 0 0 0 .39-.625C.369-.648.339-.659.3-.659s-.069.011-.09.034a.133.133 0 0 0-.032.095v.33c0 .041.011.073.032.096.021.022.051.033.09.033Z" style="fill:#0e7193;fill-rule:nonzero" transform="rotate(20.107 -1302.835 3469.126) scale(4.16667)"/><path d="M.304.01a.246.246 0 0 1-.169-.056A.195.195 0 0 1 .072-.2h.09c0 .041.013.073.039.096.026.023.06.034.103.034a.137.137 0 0 0 .099-.036A.124.124 0 0 0 .44-.2a.119.119 0 0 0-.091-.121L.238-.352A.196.196 0 0 1 .09-.545c0-.039.009-.073.026-.102a.187.187 0 0 1 .073-.069.232.232 0 0 1 .108-.024c.041 0 .078.008.109.024a.185.185 0 0 1 .102.169h-.09a.103.103 0 0 0-.034-.081.124.124 0 0 0-.087-.032.12.12 0 0 0-.086.032.106.106 0 0 0-.033.081.108.108 0 0 0 .082.108l.114.032a.2.2 0 0 1 .114.076c.027.037.04.08.04.131 0 .064-.02.115-.061.153A.23.23 0 0 1 .304.01Z" style="fill:#0e7193;fill-rule:nonzero" transform="rotate(17.128 -1634.12 4033.814) scale(4.16667)"/><path d="M.255 0v-.648h-.2V-.73h.49v.082h-.2V0h-.09Z" style="fill:#0e7193;fill-rule:nonzero" transform="scale(4.16667) rotate(14.147 -505.02 1160.462)"/><path d="M.105 0v-.082h.149v-.566H.105V-.73h.39v.082H.346v.566h.149V0h-.39Z" style="fill:#0e7193;fill-rule:nonzero" transform="rotate(11.182 -2818.686 6053.177) scale(4.16667)"/><path d="M.09 0v-.73h.12l.223.625-.005-.062-.004-.077L.423-.32v-.41H.51V0H.39L.168-.625l.004.061.003.077.002.077V0H.09Z" style="fill:#0e7193;fill-rule:nonzero" transform="rotate(8.222 -4043.731 8141.537) scale(4.16667)"/><path d="M.304.01a.22.22 0 0 1-.158-.056A.203.203 0 0 1 .088-.2v-.33c0-.065.019-.117.058-.154A.22.22 0 0 1 .304-.74c.065 0 .117.019.156.057a.2.2 0 0 1 .058.153h-.09c0-.041-.011-.073-.033-.095C.374-.648.343-.659.304-.659a.129.129 0 0 0-.093.033c-.022.022-.033.054-.033.095V-.2c0 .041.011.073.033.096a.125.125 0 0 0 .093.034c.039 0 .07-.011.091-.034A.133.133 0 0 0 .428-.2v-.1H.28v-.082h.238V-.2a.204.204 0 0 1-.058.154.218.218 0 0 1-.156.056Z" style="fill:#0e7193;fill-rule:nonzero" transform="matrix(4.14915 .38162 -.38162 4.14915 1125.29 662.372)"/><path d="M842.26 594.571h-.28.28ZM1429.28 1549.17c.281 0 .281 0 .561-.278-.28-.836-.561-1.393-.561-2.229l-.281.278c-.281.836 0 1.393.281 2.229ZM809.118 682.341c-14.886-2.786-29.491-5.294-44.377-6.966-29.21-3.344-58.421-1.95-87.35 4.458-46.624 10.31-87.35 32.043-123.02 63.25-18.257 16.161-34.547 33.994-48.59 54.055-.843 1.115-1.967 2.229-2.809 3.344.281.278.562.278.842.557.843-1.114 1.967-2.229 2.809-3.344 82.014-86.376 182.284-126.5 302.495-115.354ZM704.073 1071.87c34.266-54.613 78.363-96.965 135.941-125.664-25.84 8.637-49.995 20.34-71.341 37.058-29.772 23.127-51.68 51.826-64.6 88.606ZM1145.04 348.537c.281-.279.281-.557.562-.836-3.651-2.508-7.022-5.015-10.673-7.523-.281.279-.843.557-1.124.836 3.933 2.508 7.584 5.015 11.235 7.523ZM857.427 327.918v.557c.843 0 1.405 0 2.247.279v-.836h-2.247ZM842.26 594.571h.281-.281ZM844.507 594.571h-1.966c.562.279 1.124.279 1.686.557.28 0 .28-.278.28-.557ZM756.034 812.742c.562.557.843.557 1.404.557.562 0 1.124-.279 1.686-.557-.281-.279-.281-.558-.562-.558-.843.279-1.685.558-2.528.558ZM873.718 405.657c-.281-.279-.281-.557-.562-.836-.281.279-.562.557-.562.836h1.124ZM711.657 780.142ZM711.657 780.42c0-.278.281-.278 0 0ZM711.657 780.42s-.281 0 0 0c-.281 0-.281 0 0 0-.281.279-.562.279-.562.279s.281 0 .562-.279ZM1497.25 729.987c20.222-3.622 33.704-16.439 45.781-32.879-3.37-1.95-6.46-3.9-9.83-5.294-3.932-1.671-7.865-2.786-12.078-3.9-8.145-1.115-16.29-2.787-24.435-2.787-32.862-.278-55.612 15.604-70.779 43.467-4.775 8.916-5.898 18.669-4.494 28.421 2.247-1.951 4.775-4.18 7.022-6.13 14.324-13.096 31.457-19.504 50.556-20.619 6.46-.279 12.358-.279 18.257-.279Z" style="fill:#fff;fill-rule:nonzero"/><defs><radialGradient id="b" cx="0" cy="0" r="1" gradientTransform="matrix(2333.51 363.933 -249.855 1650.56 1853.09 -5.34)" gradientUnits="userSpaceOnUse"><stop offset="0" style="stop-color:#acacac;stop-opacity:1"/><stop offset="1" style="stop-color:black;stop-opacity:1"/></radialGradient><radialGradient id="d" cx="0" cy="0" r="1" gradientTransform="matrix(3589.64 0 0 3643.58 -892.777 960)" gradientUnits="userSpaceOnUse"><stop offset="0" style="stop-color:#007bc4;stop-opacity:1"/><stop offset="1" style="stop-color:#0099a9;stop-opacity:1"/></radialGradient></defs></svg>